<?xml version="1.0" encoding="utf-8"?>
<!-- Generator: Adobe Illustrator 22.0.1, SVG Export Plug-In . SVG Version: 6.00 Build 0)  -->
<svg version="1.1" id="Layer_1" xmlns="http://www.w3.org/2000/svg" xmlns:xlink="http://www.w3.org/1999/xlink" x="0px" y="0px"
	 viewBox="0 0 68 69" enable-background="new 0 0 68 69" xml:space="preserve">
<g id="XMLID_14559_">
	<g id="XMLID_14563_">
		<g id="XMLID_36209_">
			<g id="XMLID_36290_">
				<path id="XMLID_36291_" d="M34.01479,68.654099c-0.005302,0-0.009701,0-0.015003,0
					C16.237703,68.631798,0.070989,52.465,0.081704,34.735798c0.002785-4.750299,0.708685-20.943199,9.671-29.8755
					c5.159585-5.1428,12.106-4.702,18.823784-4.2759c1.798,0.114,3.657299,0.2321,5.4235,0.233
					c9.454597,0.0053,18.320198,3.4513,24.323597,9.4543c5.993698,5.9931,9.580605,15.1386,9.594704,24.463902
					c0.009697,6.2841-4.9533,10.130898-9.752586,13.850998c-1.798214,1.3936-3.496414,2.710102-4.925514,4.138802
					c-1.484703,1.4842-2.899902,3.305901-4.3983,5.234402C44.757488,63.2174,40.533188,68.653801,34.01479,68.654099z
					 M22.961788,0.508899c-4.794199,0-9.412,0.7966-13.094399,4.4667c-8.9179,8.888-9.6202,25.0259-9.623,29.760199
					C0.233704,52.380199,16.322989,68.4692,34.000187,68.491402c0.004601,0,0.0098,0,0.0144,0
					c6.439602,0.000298,10.638199-5.404503,14.698799-10.631302c1.501602-1.932701,2.919899-3.7584,4.4118-5.249702
					C54.561386,51.1744,56.263786,49.8549,58.065887,48.458c4.768501-3.696003,9.699303-7.517902,9.689819-13.722103l0,0
					c-0.014221-9.283398-3.583221-18.385798-9.547119-24.349098c-5.973202-5.9729-14.796883-9.4015-24.208599-9.4067
					c-1.771286-0.001-3.633284-0.1191-5.4338-0.2334C26.701088,0.628399,24.818089,0.508899,22.961788,0.508899z"/>
			</g>
			<g id="XMLID_36286_">
				<path id="XMLID_36287_" d="M33.955788,66.954102c-7.7659,0-15.834299-3.600903-22.153198-9.891201
					c-6.383-6.354103-10.044885-14.524403-10.047-22.416c-0.0013-5.115002,0.7414-10.471302,2.0916-15.082102
					c1.6456-5.621099,4.1053-10.090699,7.3101-13.2848c4.965699-4.9485,11.656199-4.5402,18.126099-4.1464
					c1.6609,0.1012,3.2297,0.1968,4.779799,0.2062c9.295002,0.0562,17.796001,3.2582,23.323101,8.7849
					c5.740498,5.739901,9.014698,14.313499,8.983418,23.522602c-0.020317,5.978996-4.718918,9.809799-9.262817,13.5145
					c-1.548,1.261997-3.010101,2.453999-4.271702,3.715199c-1.370098,1.369801-2.699482,3.0014-4.1068,4.729
					c-3.941681,4.837799-8.409199,10.321301-14.665298,10.347897l0,0C34.027287,66.954102,33.991589,66.954102,33.955788,66.954102z
					 M23.972988,2.080099c-4.650999,0-9.1341,0.7606-12.700999,4.3153c-6.9001,6.8766-9.3561,19.102699-9.353701,28.251501
					c0.002,7.848598,3.6465,15.976898,9.999001,22.300697c6.288199,6.2598,14.3157,9.8438,22.038498,9.8438
					c0.036098,0,0.070599,0,0.106602-0.000099l0,0c6.179314-0.026199,10.429398-5.243099,14.539799-10.288097
					c1.410099-1.730701,2.7421-3.365601,4.118-4.741203c1.267399-1.266998,2.732597-2.461697,4.283897-3.726398
					c4.514702-3.680599,9.183002-7.486599,9.202999-13.389c0.031105-9.1658-3.225899-17.6973-8.935799-23.4069
					c-5.497299-5.4966-13.956497-8.6812-23.209-8.7372c-1.554798-0.0094-3.198898-0.1096-4.788898-0.2065
					C27.509705,2.188599,25.729189,2.080099,23.972988,2.080099z"/>
			</g>
			<g id="XMLID_36282_">
				<path id="XMLID_36283_" d="M34.229389,65.087799c-7.283602,0-14.9498-3.4627-21.0369-9.5028
					c-6.1284-6.081001-9.6441-13.8055-9.6457-21.192902c-0.0018-8.571299,2.3788-20.104298,9.0648-26.767799
					c4.779-4.7625,11.2319-4.4193,17.4729-4.0873c1.4466,0.0769,2.813,0.1496,4.158699,0.1593
					c8.9771,0.0648,17.090302,3.056,22.259201,8.2065c5.341198,5.322101,8.494896,13.7296,8.435997,22.489799l-0.081299-0.0005
					l0.081299,0.0005c-0.038597,5.756401-4.506996,9.5844-8.828197,13.286701c-1.305698,1.1185-2.539001,2.174999-3.6348,3.271702
					c-1.210499,1.211498-2.412102,2.624397-3.684299,4.120399c-3.991199,4.693398-8.515099,10.013096-14.5485,10.016399
					C34.238586,65.087799,34.233387,65.087799,34.229389,65.087799z M25.272188,3.528599c-4.594601,0-9.035601,0.7126-12.546,4.2111
					c-6.650485,6.6281-9.018484,18.1136-9.0168,26.652399c0.0016,7.344402,3.4998,15.026703,9.5976,21.0774
					c6.0565,6.0098,13.681716,9.455605,20.922401,9.455605c0.004398,0,0.008698,0,0.013199,0
					c5.958115-0.003304,10.456116-5.292603,14.424599-9.959202c1.274403-1.498302,2.477901-2.913601,3.693199-4.129902
					c1.100319-1.1012,2.335701-2.159698,3.643803-3.2803c4.293598-3.678398,8.733398-7.481998,8.771515-13.163998
					c0.058685-8.717701-3.077118-17.081602-8.388-22.373602c-5.139-5.1207-13.210815-8.0946-22.145714-8.1591
					c-1.3494-0.0099-2.717501-0.0826-4.166-0.1597C28.477987,3.614299,26.865704,3.528599,25.272188,3.528599z"/>
			</g>
			<g id="XMLID_36278_">
				<path id="XMLID_36279_" d="M34.464386,63.073299c-6.823097,0-14.059681-3.312401-19.864899-9.095299
					c-5.8133-5.791-9.150784-13.076702-9.1567-19.989403c-0.0067-7.944899,2.2672-18.7146,8.669199-25.113899
					c4.6175-4.6155,11.188601-4.3323,16.986099-4.0814c1.192699,0.0514,2.319202,0.1,3.43,0.1108
					c4.069,0.0398,14.274399,0.8704,21.138199,7.7083c5.1241,5.104899,8.0201,12.896399,7.945499,21.376999
					c-0.0494,5.608898-4.337399,9.461601-8.4842,13.187401c-1.057198,0.949799-2.055698,1.846901-2.972599,2.7644
					c-1.0439,1.044498-2.091599,2.222298-3.200699,3.469299c-4.021099,4.521099-8.578899,9.6451-14.426701,9.662598
					l-0.000301-0.081299l0.000301,0.081299C34.506588,63.073097,34.485287,63.073299,34.464386,63.073299z M26.976389,4.838099
					c-4.583801,0-9.2451,0.6489-12.7494,4.151599c-6.3668,6.364-8.628201,17.086401-8.6216,24.998899
					c0.0059,6.869701,3.326,14.113602,9.1088,19.874203c5.7746,5.752197,12.970099,9.047497,19.750198,9.047798
					c0.021202,0,0.041401-0.000198,0.0625-0.000198c5.775501-0.0173,10.307301-5.1124,14.305817-9.607903
					c1.110786-1.249001,2.160084-2.428497,3.207283-3.476398c0.919903-0.920399,1.920002-1.819099,2.978802-2.770302
					c4.120701-3.702297,8.3815-7.530499,8.430298-13.067997c0.074303-8.436901-2.804199-16.186001-7.897499-21.260101
					c-6.821499-6.795701-16.975883-7.6213-21.025097-7.660901c-1.113503-0.0108-2.241402-0.0596-3.435602-0.111
					C29.749989,4.897799,28.366488,4.838099,26.976389,4.838099z"/>
			</g>
			<g id="XMLID_36274_">
				<path id="XMLID_36275_" d="M34.757088,60.927998c-6.3508,0-13.111099-3.0952-18.5718-8.5089
					c-5.556299-5.508499-8.747099-12.420898-8.754099-18.964699c-0.0074-7.0145,2.1444-17.355801,8.2333-23.415199
					c4.52-4.498,10.9435-4.2977,16.6101-4.1225c0.912197,0.0283,1.773697,0.0551,2.630898,0.0644
					c7.354,0.0794,14.245602,2.927001,19.4049,8.018301c5.2197,5.150799,8.084801,12.059999,8.067318,19.455l-0.081318-0.000198
					l0.081318,0.000198c-0.012817,5.475899-4.410618,9.608501-8.290817,13.2547c-0.783798,0.7365-1.524101,1.432201-2.222,2.129902
					c-0.852398,0.852398-1.712185,1.780197-2.622299,2.762299c-4.031601,4.350998-8.601101,9.282501-14.337399,9.326099
					C34.855888,60.9277,34.806389,60.927998,34.757088,60.927998z M28.844587,6.008899c-4.6705,0-9.482698,0.5804-13.065399,4.1456
					c-6.053484,6.0242-8.1928,16.316299-8.1853,23.299599c0.007,6.5009,3.1801,13.3713,8.705899,18.8493
					c5.472601,5.425602,12.2554,8.511501,18.604101,8.4613c5.666-0.042999,10.210197-4.947098,14.219398-9.273998
					c0.911201-0.983402,1.7719-1.912102,2.626598-2.766701c0.6996-0.699501,1.440903-1.396099,2.225601-2.133499
					c3.856216-3.623699,8.226799-7.730701,8.239502-13.136402c0.035797-15.1486-11.9608-27.144699-27.311401-27.310398
					c-0.858799-0.0093-1.7211-0.036-2.634098-0.0643C31.150988,6.044599,30.001589,6.008899,28.844587,6.008899z"/>
			</g>
			<g id="XMLID_36270_">
				<path id="XMLID_36271_" d="M34.999889,58.6717c-5.773186,0-11.948601-2.807899-17.0023-7.744499
					c-5.303301-5.1805-8.48-11.954601-8.497701-18.121002c-0.0184-6.427799,2.0039-15.968199,7.7637-21.701099
					c4.495701-4.4743,10.931801-4.324,16.611198-4.1925c0.501919,0.0118,0.9986,0.0234,1.488602,0.0316
					c6.926899,0.1176,13.414799,2.8043,18.268497,7.565001c4.937,4.8423,7.633202,11.3403,7.592003,18.2973
					c-0.032402,5.4706-4.359001,9.685501-8.176102,13.404301c-0.4958,0.482899-0.982601,0.9571-1.449799,1.424297
					c-0.620602,0.620701-1.2402,1.263-1.896099,1.9431c-4.056602,4.205803-8.654301,8.9729-14.338184,9.089901
					C35.242786,58.670597,35.121086,58.6717,34.999889,58.6717z M35.360188,58.505398l0.001701,0.081303L35.360188,58.505398
					c5.617001-0.115498,10.189999-4.856899,14.224602-9.040199c0.656399-0.6805,1.276398-1.323498,1.898197-1.945099
					c0.467716-0.467701,0.954903-0.942303,1.451202-1.4258c3.794399-3.696499,8.095097-7.8862,8.126999-13.2887
					c0.083599-14.1646-11.205399-25.452801-25.700699-25.6987c-0.490299-0.0083-0.987301-0.0198-1.489502-0.0316
					c-5.646399-0.1312-12.046099-0.2806-16.492699,4.1452c-5.7244,5.697399-7.734,15.1887-7.7157,21.585402
					c0.0176,6.123497,3.176001,12.854397,8.4487,18.004898C23.240189,55.8209,29.533487,58.623699,35.360188,58.505398z"/>
			</g>
			<g id="XMLID_36266_">
				<path id="XMLID_36267_" d="M35.572388,56.315498c-5.4944,0-11.325684-2.633598-16.050499-7.260799
					c-4.9973-4.894001-7.8715-11.087502-7.885401-16.992599c-0.0145-6.1411,1.8887-14.6159,7.2736-19.983601
					c4.481901-4.4675,10.948101-4.3636,16.653301-4.2724l0.325001,0.0052c6.471798,0.102,12.549999,2.6276,17.115196,7.1117
					c4.637001,4.554901,7.1707,10.6418,7.134201,17.139399c-0.0312,5.545101-4.359299,9.853703-8.177998,13.655102
					L51.346188,46.3293c-0.352001,0.351997-0.708599,0.712799-1.070202,1.078697
					c-4.077499,4.1245-8.698898,8.799301-14.387497,8.904602C35.783489,56.314499,35.677704,56.315498,35.572388,56.315498z
					 M33.064789,7.942199c-4.991901,0-10.246601,0.4704-14.040001,4.2516c-5.3495,5.332299-7.240084,13.7595-7.225699,19.868
					c0.014,5.861702,2.8703,12.012901,7.836699,16.876801c4.784401,4.6856,10.6994,7.311699,16.249916,7.2113
					c5.622185-0.104,10.218884-4.753899,14.274582-8.8563c0.361801-0.366001,0.7187-0.7271,1.0709-1.0793l0.613903-0.612
					c3.796299-3.779301,8.099197-8.062801,8.129997-13.540798l0.081303,0.0005l-0.081303-0.0005
					c0.073616-13.071402-10.7328-23.877201-24.089298-24.087502l-0.325001-0.0053
					C34.741886,7.955699,33.906887,7.942199,33.064789,7.942199z"/>
			</g>
			<g id="XMLID_36262_">
				<path id="XMLID_36263_" d="M36.184704,53.880798c-5.216717,0-10.694916-2.447601-15.076315-6.746601
					c-4.616201-4.5294-7.269601-10.322899-7.2798-15.894999c-0.0103-5.5749,1.761-13.309099,6.7637-18.297001
					c4.1696-4.1574,10.130415-4.4262,15.876698-4.3425c6.022602,0.0863,11.692501,2.4514,15.965717,6.6595
					c4.330784,4.264799,6.700485,9.939899,6.672482,15.9802c-0.026299,5.702499-4.6381,10.314701-8.005299,13.6824l-0.0774,0.077301
					c-3.910999,3.9118-8.778198,8.780201-14.555199,8.879299l-0.0014-0.081402l0.0014,0.081402
					C36.374786,53.879997,36.279289,53.880798,36.184704,53.880798z M35.037487,8.751099
					c-5.256399,0-10.548498,0.5359-14.330198,4.3064c-4.967501,4.952499-6.7264,12.6392-6.716001,18.1814
					c0.0101,5.528801,2.645801,11.280098,7.231,15.779202c4.429899,4.346798,9.989799,6.783199,15.2442,6.697598
					c5.711216-0.097801,10.552799-4.940399,14.443001-8.8316l0.0774-0.077301
					c3.347397-3.347698,7.931599-7.932598,7.957699-13.568098c0.0564-12.215-10.027199-22.297901-22.477798-22.476299
					C35.991489,8.755599,35.514587,8.751099,35.037487,8.751099z"/>
			</g>
			<g id="XMLID_36258_">
				<path id="XMLID_36259_" d="M36.977886,51.383499c-5.068398,0-10.303598-2.314301-14.382097-6.362099
					c-4.147701-4.1166-6.528502-9.462101-6.532001-14.666203c-0.004299-6.422499,2.388802-12.801298,6.245001-16.647099
					c3.9461-3.9347,9.691-4.4205,14.7836-4.3811c5.628899,0.0461,10.9104,2.2261,14.871315,6.1386
					c4.003483,3.9545,6.189686,9.2425,6.156185,14.889999l0,0C58.089287,35.48,54.611889,39.6614,50.858704,43.416397
					c-3.833218,3.8349-8.374214,7.929604-13.766315,7.966702C37.054287,51.383499,37.015789,51.383499,36.977886,51.383499z
					 M36.543388,9.487399c-4.922001,0-10.3564,0.5832-14.1196,4.335999c-3.827,3.816299-6.201599,10.1509-6.197399,16.531799
					c0.003399,5.1609,2.366798,10.4645,6.483999,14.5509c4.047899,4.017403,9.242001,6.314701,14.267315,6.314701
					c0.038086,0,0.075485,0,0.113384-0.000301c5.330616-0.036697,9.842102-4.106899,13.652618-7.919098
					c3.72858-3.730499,7.183182-7.881001,7.213482-12.946701c0.067898-11.410398-9.292702-20.7705-20.8661-20.865
					C36.909389,9.488199,36.726486,9.487399,36.543388,9.487399z"/>
			</g>
			<g id="XMLID_36254_">
				<path id="XMLID_36255_" d="M37.677486,48.844398c-4.801399,0.000099-9.688198-2.1259-13.418598-5.840099
					c-3.7677-3.751499-5.928801-8.700001-5.9291-13.5769c-0.000401-5.776199,2.191099-11.5441,5.719299-15.0531
					c3.976101-3.9547,9.718201-4.3829,13.698002-4.3637c10.7449,0.0561,19.454899,8.7666,19.416199,19.417099
					c-0.018803,5.1845-3.514999,9.345201-6.5588,12.390699c-3.257301,3.259399-7.6623,7.003601-12.857601,7.025803l0,0
					C37.723988,48.844398,37.700489,48.844398,37.677486,48.844398z M37.489189,10.172599
					c-3.934486,0-9.476801,0.4891-13.325401,4.3171c-3.4986,3.4795-5.6717,9.2033-5.6714,14.9377
					c0.000401,4.833801,2.144001,9.740398,5.881201,13.461601c3.6999,3.6838,8.545399,5.792698,13.303898,5.792698
					c0.023003,0,0.0457,0,0.068802-0.000099l0,0c5.135799-0.022099,9.507999-3.740898,12.743198-6.978199
					c3.021702-3.023399,6.492702-7.1511,6.511101-12.2763c0.038399-10.561001-8.598999-19.1982-19.254501-19.253901
					C37.661388,10.172799,37.575703,10.172599,37.489189,10.172599z"/>
			</g>
			<g id="XMLID_36250_">
				<path id="XMLID_36251_" d="M38.398705,46.2789c-4.525917,0-9.061117-1.938602-12.446817-5.321201
					c-3.393999-3.3909-5.339499-7.941299-5.337599-12.484301c0.0023-5.2402,1.946301-10.2899,5.2001-13.5081
					c2.883316-2.8516,7.102798-4.2974,12.5411-4.2974c0.021599,0,0.042702,0,0.064499,0
					c9.827602,0.0207,17.815002,8.008201,17.805302,17.805698c-0.003902,3.858402-2.187801,8.3386-5.842102,11.984699
					c-3.6479,3.639603-8.120197,5.815601-11.9632,5.820602C38.412987,46.2789,38.405487,46.2789,38.398705,46.2789z
					 M38.355488,10.830599c-5.394402,0-9.574699,1.4298-12.426785,4.2504c-3.223616,3.1883-5.149515,8.1948-5.151714,13.3924
					c-0.001902,4.500299,1.926199,9.0086,5.2899,12.369299c3.3552,3.3521,7.848898,5.273602,12.331816,5.273602
					c0.007183,0,0.013783,0,0.021,0c3.801083-0.0051,8.230385-2.1633,11.848682-5.773201
					c3.624199-3.616199,5.790501-8.053497,5.794319-11.869799l0.08128,0.000099l-0.08128-0.000099
					c0.009682-9.707701-7.905003-17.6222-17.643002-17.6427C38.398586,10.830599,38.376587,10.830599,38.355488,10.830599z"/>
			</g>
			<g id="XMLID_36246_">
				<path id="XMLID_36247_" d="M39.117088,43.705097c-0.006199,0-0.011902,0-0.018101,0
					c-8.784899-0.015598-16.200899-7.431698-16.194-16.194199c0.007401-9.374599,6.818001-16.185299,16.194099-16.1943
					c0.005001,0,0.010201,0,0.015102,0c4.254299,0,8.293999,1.6955,11.376999,4.775299
					c3.088898,3.085901,4.794518,7.141201,4.802299,11.4188c0.006599,3.639101-1.931999,7.754202-5.185402,11.007902
					C46.859703,41.767097,42.752186,43.705097,39.117088,43.705097z M39.099289,43.5424c0.005898,0,0.011898,0,0.017799,0
					c3.592999,0,7.657299-1.920002,10.875999-5.138901c3.223618-3.223701,5.144199-7.2957,5.137699-10.892401
					c-0.0159-8.6931-7.349899-16.0319-16.016998-16.0319c-0.005501,0-0.0093,0-0.014702,0
					c-9.281898,0.008901-16.024099,6.751301-16.031498,16.0317C23.060787,36.185497,30.402388,43.527,39.099289,43.5424z"/>
			</g>
			<g id="XMLID_36242_">
				<path id="XMLID_36243_" d="M39.901489,41.140598c-0.043503,0-0.0867-0.000198-0.130203-0.000801
					c-3.698299-0.0485-7.410583-1.6516-10.185099-4.3983c-2.8396-2.811199-4.4011-6.428299-4.396599-10.184698
					c0.009499-8.095301,6.414799-14.5009,14.581999-14.5829c0.044498-0.0004,0.089302-0.0006,0.133801-0.0006
					c3.651501,0,7.181801,1.4997,9.9548,4.232201c2.8391,2.7976,4.477516,6.570398,4.495201,10.351099
					c0.015697,3.368801-1.739403,7.129902-4.694801,10.060501C46.756088,39.497097,43.206703,41.140598,39.901489,41.140598z
					 M39.905388,12.135999c-0.044201,0-0.0881,0.0001-0.132198,0.0006c-8.077002,0.081-14.411602,6.4153-14.421001,14.4205
					C25.343187,34.138,32.082088,40.8764,39.773487,40.9771c0.0424,0.000599,0.085499,0.000797,0.128002,0.000797
					c3.262699,0,6.7701-1.625999,9.644497-4.4762c2.925102-2.9007,4.6623-6.618198,4.646717-9.944399
					c-0.017517-3.7376-1.638214-7.468399-4.446716-10.236C47.003788,13.619299,43.513588,12.135999,39.905388,12.135999z"/>
			</g>
			<g id="XMLID_36238_">
				<path id="XMLID_36239_" d="M40.355389,38.600998c-3.357502,0-6.5602-1.348698-9.026201-3.802799
					c-2.5014-2.489498-3.876999-5.745899-3.8736-9.169199c0.003401-3.487902,1.3598-6.755901,3.819-9.2017
					c2.445601-2.432301,5.673601-3.7699,9.094599-3.7699c0.0196,0,0.038803,0,0.0583,0.0001
					c3.209217,0.014299,6.476501,1.428699,8.964401,3.8804c2.5186,2.482,3.979198,5.795401,4.007,9.090599
					c0.0257,3.051802-1.396301,6.259501-3.901699,8.800602c-2.5956,2.632999-5.901302,4.1535-9.069485,4.1717
					C40.403706,38.600998,40.379387,38.600998,40.355389,38.600998z M40.426704,38.438198l0.000484,0.081303L40.426704,38.438198
					c3.125282-0.017998,6.389084-1.521,8.954681-4.123299c2.475319-2.510601,3.880203-5.6761,3.854801-8.685101
					c-0.057484-6.793501-6.043098-12.7794-12.809299-12.8096c-0.0191-0.0002-0.038601-0.0002-0.057701-0.0002
					c-3.377998,0-6.564899,1.3207-8.979898,3.7226c-2.4284,2.415199-3.767584,5.6422-3.771099,9.0867
					c-0.003302,3.379499,1.355299,6.594898,3.825899,9.0536C33.896389,37.123798,37.082088,38.458199,40.426704,38.438198z"/>
			</g>
			<g id="XMLID_36234_">
				<path id="XMLID_36235_" d="M41.023388,36.105598c-2.909801,0-5.805683-1.2258-7.9496-3.365799
					c-2.184299-2.1805-3.3859-5.019701-3.383083-7.994501c0.002884-2.9736,1.205183-5.8078,3.385685-7.9811
					c2.155598-2.148399,5.052315-3.379299,7.950199-3.379299c0.008301,0,0.016399,0,0.024601,0
					c5.883514,0.014,11.298199,5.428299,11.360199,11.3596c0.028599,2.7286-1.202602,5.5576-3.377602,7.761501
					c-2.250084,2.279797-5.159599,3.591797-7.982597,3.599598C41.041988,36.105598,41.032589,36.105598,41.023388,36.105598z
					 M41.026588,13.547599c-2.8554,0-5.709801,1.2136-7.8354,3.3318c-2.1497,2.142601-3.3351,4.936001-3.337801,7.8659
					c-0.002684,2.931301,1.181801,5.729601,3.335501,7.879499c2.120098,2.116699,4.993,3.322399,7.862,3.3181
					c2.7799-0.007599,5.6474-1.301998,7.8671-3.551098c2.144798-2.173401,3.358799-4.960001,3.330715-7.6457
					c-0.061115-5.847101-5.398415-11.184701-11.197815-11.198501C41.042789,13.547599,41.034489,13.547599,41.026588,13.547599z"/>
			</g>
			<g id="XMLID_36230_">
				<path id="XMLID_36231_" d="M41.728088,33.671997c-0.032383,0-0.0648-0.000298-0.097202-0.000599
					c-5.289398-0.0644-9.753597-4.528999-9.748182-9.749199c0.005384-5.144501,4.560785-9.7001,9.748384-9.7488
					c0.024101-0.0002,0.048615-0.0003,0.072701-0.0003c4.9258,0,9.617798,4.7156,9.677097,9.7483
					c0.028603,2.421101-1.047398,4.901402-2.951797,6.805201C46.552788,32.6021,44.115704,33.671898,41.728088,33.671997z
					 M41.704086,14.335699c-0.024097,0-0.047497,0.000199-0.071381,0.0004c-5.102001,0.0479-9.581917,4.527501-9.587318,9.5864
					c-0.005299,5.132801,4.385319,9.522799,9.587399,9.586199l0,0c2.377701,0.019703,4.810204-1.027,6.681202-2.897099
					c1.873718-1.872999,2.932301-4.310699,2.904202-6.688299C51.159988,18.973799,46.546589,14.335699,41.704086,14.335699z"/>
			</g>
			<g id="XMLID_36226_">
				<path id="XMLID_36227_" d="M42.317703,31.317999c-0.054417,0-0.108414-0.000601-0.162716-0.0021
					c-4.3358-0.110001-8.137699-3.912901-8.135799-8.1378c0.002098-4.1696,3.8801-8.0484,8.136101-8.1377
					c0.041798-0.0008,0.0839-0.0012,0.125698-0.0012c1.846302,0,3.780399,0.8492,5.326302,2.343499
					c1.681,1.624701,2.660599,3.736601,2.687599,5.7943l0,0c0.026699,2.042501-0.893101,4.137501-2.523701,5.7479
					C46.225487,30.451698,44.246586,31.317999,42.317703,31.317999z M42.281086,15.201798
					c-0.040997,0-0.0816,0.000401-0.122299,0.001301c-4.098297,0.085999-7.974998,3.961699-7.976898,7.974999
					c-0.0019,4.1406,3.725815,7.8673,7.9772,7.975201c1.935299,0.054499,3.9398-0.8053,5.497898-2.3442
					c1.599102-1.579401,2.501301-3.631599,2.475201-5.6299l0,0c-0.026398-2.0147-0.987801-4.084801-2.637897-5.6796
					C45.978588,16.0348,44.085289,15.201798,42.281086,15.201798z"/>
			</g>
			<g id="XMLID_36222_">
				<path id="XMLID_36223_" d="M42.548988,29.056898c-1.673,0-3.269402-0.6707-4.5028-1.8934
					c-1.247902-1.237099-1.961601-2.9259-1.958302-4.633499c0.003403-1.651199,0.738602-3.3221,2.0172-4.584299
					c1.268501-1.252001,2.911701-1.9575,4.5103-1.942101c3.310001,0.036699,6.4814,3.208099,6.525501,6.5254
					c0.021816,1.632299-0.635601,3.2169-1.851002,4.461899c-1.263901,1.294601-2.967697,2.0476-4.674698,2.065701
					C42.593288,29.056799,42.570889,29.056898,42.548988,29.056898z M42.556587,16.165998
					c-1.536999,0-3.114498,0.688601-4.337101,1.8955c-1.248199,1.2318-1.965698,2.8606-1.968899,4.4688
					c-0.003201,1.6644,0.692902,3.311001,1.910118,4.5177c1.218483,1.2078,2.795784,1.861401,4.452881,1.8459l0,0
					c1.663902-0.017599,3.325901-0.7526,4.559799-2.016499c1.185101-1.213902,1.826103-2.757401,1.804802-4.346201
					c-0.042999-3.2358-3.1362-6.329-6.3647-6.364901C42.594589,16.1661,42.575489,16.165998,42.556587,16.165998z"/>
			</g>
			<g id="XMLID_36218_">
				<path id="XMLID_36219_" d="M43.042889,26.9112c-0.017502,0-0.034801-0.0002-0.052101-0.000301
					c-2.671799-0.032-4.922199-2.282999-4.914299-4.915699c0.0075-2.550001,2.349899-4.8927,4.9146-4.914801
					c0.010799-0.0002,0.022198-0.0002,0.033199-0.0002c2.478901,0,4.8465,2.378,4.882599,4.9142
					c0.017818,1.254702-0.510399,2.514-1.449299,3.455101C45.528889,26.380299,44.286888,26.9112,43.042889,26.9112z
					 M43.024586,17.242899c-0.010799,0-0.021397,0-0.0322,0.0002c-2.480396,0.0214-4.745899,2.2866-4.753197,4.7528
					c-0.007603,2.545099,2.1693,4.7215,4.753513,4.7523c1.217285,0.011599,2.438583-0.5007,3.349686-1.4137
					c0.9081-0.91,1.418999-2.126701,1.401798-3.337801C47.709389,19.543499,45.420387,17.242899,43.024586,17.242899z"/>
			</g>
			<g id="XMLID_36214_">
				<path id="XMLID_36215_" d="M43.178703,24.8979c-0.785316,0-1.548115-0.322401-2.158314-0.914501
					c-0.6702-0.6507-1.052303-1.5224-1.047802-2.391699c0.0042-0.839401,0.410801-1.7292,1.087502-2.380201
					c0.637398-0.6129,1.4445-0.9508,2.218998-0.9231c1.537617,0.052099,3.276001,1.475599,3.301102,3.3027
					c0.023514,1.698099-1.519001,3.2425-3.3009,3.305099l0,0C43.245705,24.897299,43.212189,24.8979,43.178703,24.8979z
					 M43.194588,18.449598c-0.7052,0-1.437698,0.3176-2.021702,0.879101c-0.645798,0.621201-1.033699,1.4674-1.037697,2.264
					c-0.004101,0.813,0.369198,1.663099,0.998516,2.273899c0.604084,0.586201,1.362484,0.891201,2.139782,0.866901l0,0
					c1.697216-0.0595,3.166302-1.526901,3.1441-3.140202c-0.023602-1.7104-1.7094-3.093699-3.143883-3.1423
					C43.247288,18.450098,43.220989,18.449598,43.194588,18.449598z"/>
			</g>
			<g id="XMLID_36210_">
				<path id="XMLID_36211_" d="M43.465286,23.030098c-0.003201,0-0.006397,0-0.009583,0
					c-0.456001-0.0026-0.899418-0.189098-1.216515-0.511599c-0.311703-0.3169-0.480602-0.736801-0.475487-1.1821
					c0.010685-0.9438,0.753784-1.686901,1.692001-1.6917c0.002686,0,0.005383,0,0.008183,0
					c0.4403,0,0.873501,0.180201,1.189503,0.494999c0.320316,0.319201,0.496098,0.7446,0.495499,1.197802
					c-0.000801,0.4571-0.177799,0.884298-0.498501,1.202799C44.331989,22.856298,43.911488,23.030098,43.465286,23.030098z
					 M43.463886,19.8074c-0.002399,0-0.004799,0-0.007183,0c-0.848515,0.004299-1.520817,0.676699-1.530315,1.530899
					c-0.004601,0.4016,0.147701,0.780399,0.428799,1.0662c0.2869,0.2918,0.688301,0.460501,1.101517,0.4629
					c0.002884,0,0.005684,0,0.008385,0c0.403198,0,0.783001-0.157,1.070618-0.4426
					c0.289883-0.287701,0.449883-0.674101,0.450481-1.087601l0.081402,0.0002l-0.081402-0.0002
					c0.000702-0.4095-0.158398-0.7938-0.447701-1.0821C44.252888,19.9702,43.861488,19.8074,43.463886,19.8074z"/>
			</g>
		</g>
		<g id="XMLID_14564_">
			<g id="XMLID_36207_">
				<path id="XMLID_36208_" d="M34.081287,68.573402l-0.162582-0.001305c0.050282-6.584,1.885681-13.2201,3.660484-19.6376
					c0.368198-1.331497,0.748997-2.7085,1.1017-4.044598c0.371098-1.4063,0.777298-2.861301,1.169998-4.268303
					c1.772499-6.350998,3.605598-12.917999,3.5867-19.372698l0.162701-0.000601c0.018898,6.4774-1.817001,13.055302-3.5928,19.417
					c-0.392502,1.406502-0.798401,2.860901-1.169399,4.266201c-0.352802,1.336899-0.733803,2.714401-1.1022,4.046299
					C35.963787,55.385201,34.131489,62.010799,34.081287,68.573402z"/>
			</g>
			<g id="XMLID_36205_">
				<path id="XMLID_36206_" d="M36.430889,68.313599c-0.413002-6.411098,1.128399-13.007401,2.618999-19.386299
					c0.316399-1.354099,0.6437-2.754501,0.939816-4.106201c0.269382-1.230301,0.562485-2.501499,0.846085-3.7309
					c1.505199-6.527901,3.061916-13.278099,2.601997-19.835899l0.162403-0.0114
					c0.461399,6.5821-1.0979,13.344301-2.605801,19.883799c-0.283501,1.229-0.576599,2.499901-0.845802,3.729301
					c-0.296299,1.352699-0.623699,2.753601-0.940197,4.108299c-1.488003,6.3675-3.026802,12.951702-2.615101,19.338902
					L36.430889,68.313599z"/>
			</g>
			<g id="XMLID_36203_">
				<path id="XMLID_36204_" d="M38.679886,67.550797c-0.779999-7.507298,0.875202-15.087997,2.4757-22.419197
					c1.705116-7.809002,3.468117-15.8836,2.283001-23.871101l0.160801-0.0238c1.189499,8.016901-0.576683,16.1064-2.284801,23.9296
					c-1.598,7.3186-3.250298,14.8862-2.473,22.367599L38.679886,67.550797z"/>
			</g>
			<g id="XMLID_36201_">
				<path id="XMLID_36202_" d="M40.712704,66.343903c-0.758415-5.827805,0.199486-11.905403,1.125999-17.782803
					c0.223-1.414902,0.453686-2.878101,0.651585-4.292202c0.126301-0.901897,0.260899-1.816799,0.396999-2.741299
					c0.998199-6.779102,2.0303-13.7892,0.552418-20.2609l0.158482-0.0362c1.484802,6.501499,0.450401,13.526901-0.5499,20.3209
					c-0.135998,0.924099-0.270699,1.838501-0.3969,2.739998c-0.198097,1.415501-0.428898,2.879402-0.6521,4.2952
					c-0.924583,5.865902-1.880798,11.931702-1.125198,17.736301L40.712704,66.343903z"/>
			</g>
			<g id="XMLID_36199_">
				<path id="XMLID_36200_" d="M42.582787,64.772301c-0.805298-5.376701-0.105297-11.0135,0.571602-16.465
					c0.184315-1.485104,0.375099-3.020603,0.527699-4.5037c0.073402-0.7136,0.151402-1.436901,0.2304-2.168201
					c0.7075-6.5606,1.509602-13.996599-0.471199-20.3627l0.155415-0.0483c1.990685,6.3983,1.186787,13.8521,0.477486,20.428501
					c-0.079002,0.7309-0.157001,1.453999-0.2304,2.167198c-0.152802,1.484901-0.343601,3.0214-0.528,4.507198
					c-0.675499,5.440502-1.374001,11.066303-0.572201,16.420902L42.582787,64.772301z"/>
			</g>
			<g id="XMLID_36197_">
				<path id="XMLID_36198_" d="M44.344288,62.9259c-0.9529-5.931099-0.338699-12.101799,0.255417-18.069401
					c0.780281-7.838398,1.587181-15.943501-1.157318-23.5804l0.153103-0.055c2.756897,7.6714,1.948215,15.795099,1.1661,23.6514
					c-0.593002,5.957302-1.2062,12.117302-0.256603,18.027603L44.344288,62.9259z"/>
			</g>
			<g id="XMLID_36195_">
				<path id="XMLID_36196_" d="M46.050388,60.902c-1.001602-5.409702-0.6511-11.090801-0.312099-16.584702
					c0.476414-7.7206,0.968998-15.7041-2.293701-23.0357l0.148701-0.066101c3.278801,7.368,2.784901,15.371599,2.307301,23.111799
					c-0.338402,5.4841-0.688202,11.154903,0.309597,16.545101L46.050388,60.902z"/>
			</g>
			<g id="XMLID_36193_">
				<path id="XMLID_36194_" d="M47.747887,58.7924c-1.111599-4.981701-1.004498-10.2575-0.900898-15.359501
					c0.152-7.488201,0.309097-15.231401-3.3997-22.145901l0.143299-0.0769c3.729118,6.952101,3.5714,14.716999,3.418999,22.226002
					c-0.103397,5.092499-0.2103,10.358398,0.897118,15.320797L47.747887,58.7924z"/>
			</g>
			<g id="XMLID_36191_">
				<path id="XMLID_36192_" d="M49.474789,56.6805c-1.032085-3.6311-1.133701-7.559902-1.232086-11.359303
					c-0.036999-1.4277-0.075314-2.903999-0.163616-4.321899c-0.381897-6.1231-0.857098-13.743399-4.628899-19.707199l0.1376-0.087
					c3.793915,5.999001,4.270599,13.6425,4.653599,19.784101c0.088699,1.420799,0.126801,2.898697,0.163799,4.327797
					c0.098202,3.789303,0.1996,7.707703,1.226101,11.319099L49.474789,56.6805z"/>
			</g>
			<g id="XMLID_36189_">
				<path id="XMLID_36190_" d="M51.256989,54.633801c-1.269703-3.339302-1.556286-7.077503-1.8335-10.692703
					c-0.096703-1.260998-0.196602-2.565098-0.337402-3.8074c-0.821598-7.254601-1.812599-13.679199-5.632381-18.836699
					l0.130581-0.096901c3.843903,5.190001,4.839001,11.6369,5.663502,18.915201c0.140915,1.2453,0.241001,2.5508,0.337917,3.8134
					c0.276283,3.6036,0.562084,7.330101,1.823383,10.647198L51.256989,54.633801z"/>
			</g>
			<g id="XMLID_36187_">
				<path id="XMLID_36188_" d="M53.107086,52.6987c-1.607384-3.080002-2.103699-6.725601-2.583599-10.2509
					c-0.153-1.123402-0.297401-2.184502-0.476601-3.233601c-0.9743-5.704201-2.187-12.8034-6.5896-17.9126l0.123302-0.1061
					c4.432114,5.143299,5.648998,12.2673,6.626797,17.991398c0.179501,1.051601,0.3242,2.114101,0.477318,3.238903
					c0.478001,3.511597,0.972282,7.1427,2.566582,10.197598L53.107086,52.6987z"/>
			</g>
			<g id="XMLID_36185_">
				<path id="XMLID_36186_" d="M55.021488,50.8978c-2.0355-2.8409-2.780102-6.491501-3.5-10.0219
					c-0.185299-0.908401-0.360199-1.766403-0.556702-2.610203c-1.277901-5.490498-2.868198-12.323399-7.5033-16.959599
					l0.115002-0.115c4.667999,4.6689,6.264217,11.527102,7.546799,17.037699c0.196899,0.845901,0.372101,1.705101,0.557701,2.6147
					c0.7164,3.5135,1.4575,7.146801,3.472717,9.959602L55.021488,50.8978z"/>
			</g>
			<g id="XMLID_36183_">
				<path id="XMLID_36184_" d="M56.980389,49.229099c-2.524803-2.615299-3.564503-6.327202-4.570103-9.916901
					c-0.197998-0.706699-0.384899-1.3741-0.583397-2.0336c-1.6744-5.563601-3.572002-11.8694-8.360802-15.968201l0.105801-0.1236
					c4.8251,4.129702,6.73,10.4599,8.410698,16.0448c0.19912,0.660999,0.3862,1.329201,0.584301,2.036602
					c1.000202,3.5704,2.034401,7.262199,4.530399,9.847797L56.980389,49.229099z"/>
			</g>
			<g id="XMLID_36181_">
				<path id="XMLID_36182_" d="M58.947887,47.6674c-3.058399-2.421703-4.5061-6.416103-5.783298-9.9403
					c-0.180702-0.498001-0.3591-0.990501-0.539501-1.472603l-0.035599-0.0952c-2.0695-5.528399-4.209202-11.2451-9.118702-14.845098
					l0.096302-0.131201c4.948399,3.6287,7.097,9.3685,9.174698,14.9193l0.0355,0.095001
					c0.180702,0.4828,0.359501,0.9757,0.5401,1.4744c1.332001,3.675098,2.7094,7.475201,5.731499,9.868298L58.947887,47.6674z"/>
			</g>
			<g id="XMLID_36179_">
				<path id="XMLID_36180_" d="M60.874702,46.1688c-3.632317-2.260902-5.412415-6.247501-7.133999-10.102901
					c-0.129314-0.289799-0.257915-0.577801-0.386616-0.8633l-0.1255-0.278599
					c-2.325699-5.163601-4.730801-10.503-9.752399-13.606201l0.085514-0.1385c5.064003,3.1294,7.479385,8.492001,9.815285,13.678001
					l0.1255,0.278599c0.128601,0.2855,0.257301,0.573799,0.386799,0.8638c1.711601,3.833,3.481419,7.796501,7.071503,10.030899
					L60.874702,46.1688z"/>
			</g>
			<g id="XMLID_36177_">
				<path id="XMLID_36178_" d="M62.700787,44.673298c-4.785801-2.383198-7.2229-7.075199-9.579597-11.612698
					c-2.366402-4.556002-4.813202-9.267101-9.639202-11.739601l0.074001-0.144899c4.872398,2.496399,7.331398,7.2309,9.7094,11.8095
					c2.344799,4.514297,4.769497,9.182499,9.5079,11.542198L62.700787,44.673298z"/>
			</g>
			<g id="XMLID_36175_">
				<path id="XMLID_36176_" d="M64.353989,43.109299c-4.852802-2.225498-7.593285-6.604801-10.243702-10.839901
					c-2.718998-4.344698-5.530499-8.837299-10.622498-10.9457l0.062298-0.150299
					c5.140102,2.1283,7.965618,6.643299,10.698101,11.009798c2.637699,4.214703,5.3652,8.573101,10.173397,10.7784
					L64.353989,43.109299z"/>
			</g>
			<g id="XMLID_36173_">
				<path id="XMLID_36174_" d="M65.768486,41.406799c-5.045498-1.846699-8.063782-6.010799-10.98278-10.0378
					c-2.980217-4.1115-6.062-8.362801-11.291718-10.0431l0.0499-0.154701c5.280399,1.696301,8.377899,5.969702,11.373501,10.102301
					c2.904697,4.007099,5.908199,8.150902,10.906998,9.980499L65.768486,41.406799z"/>
			</g>
			<g id="XMLID_36171_">
				<path id="XMLID_36172_" d="M66.866287,39.493599c-5.179298-1.4235-8.4244-5.3326-11.562698-9.113001
					c-3.190502-3.8435-6.489799-7.817799-11.803101-9.0527l0.0369-0.1586c5.366699,1.247601,8.683701,5.2432,11.891399,9.107401
					c3.122101,3.761002,6.350601,7.650101,11.480797,9.060001L66.866287,39.493599z"/>
			</g>
			<g id="XMLID_36169_">
				<path id="XMLID_36170_" d="M67.57579,37.3106c-5.261803-0.927303-8.676003-4.540901-11.977802-8.035501
					c-3.329899-3.5242-6.773102-7.168301-12.090801-7.945999l0.023518-0.1611c5.373684,0.7859,8.836483,4.451,12.185482,7.995399
					c3.283699,3.475399,6.679199,7.069099,11.887901,7.987L67.57579,37.3106z"/>
			</g>
			<g id="XMLID_36167_">
				<path id="XMLID_36168_" d="M67.831703,34.816898c-5.269115-0.338799-8.797714-3.605999-12.209999-6.7656
					c-3.391216-3.1397-6.897816-6.386499-12.108002-6.721498l0.010487-0.162401c5.267899,0.3389,8.795998,3.605501,12.208,6.764601
					c3.391598,3.140299,6.898598,6.387398,12.109997,6.722599L67.831703,34.816898z"/>
			</g>
			<g id="XMLID_36165_">
				<path id="XMLID_36166_" d="M67.733887,32.159298c-5.003181-0.054897-8.362499-2.119799-12.161182-5.4338
					c-3.260818-2.8449-6.623116-5.396999-11.836617-5.396999c-0.0718,0-0.143383,0.0005-0.216,0.0014l-0.002201-0.162701
					c0.073002-0.0009,0.146816-0.0014,0.2192-0.0014c5.269699,0,8.657101,2.570702,11.942699,5.437
					c3.770599,3.2897,7.102699,5.3395,12.056,5.3939L67.733887,32.159298z"/>
			</g>
			<g id="XMLID_36163_">
				<path id="XMLID_36164_" d="M66.54129,29.524899c-4.493103,0.0002-7.721004-1.6504-11.117588-4.116199
					c-4.005516-2.907801-7.236713-4.5079-11.897316-4.0791l-0.0149-0.162001c4.713303-0.4328,7.971001,1.179199,12.0079,4.109501
					c3.5905,2.6066,6.991318,4.2925,11.911499,4.063999l0.007698,0.162399C67.133987,29.518,66.834587,29.524899,66.54129,29.524899
					z"/>
			</g>
			<g id="XMLID_36161_">
				<path id="XMLID_36162_" d="M64.705986,26.989399c-3.2714,0.000099-6.166698-0.8957-9.531097-2.885
					c-4.060402-2.401199-7.118099-3.5548-11.642101-2.7756l-0.027599-0.1604c4.573601-0.787498,7.658699,0.375301,11.752701,2.7959
					c4.078598,2.411901,7.460598,3.2041,11.676598,2.732801l0.018097,0.161699
					C66.179291,26.945,65.43309,26.989399,64.705986,26.989399z"/>
			</g>
			<g id="XMLID_36159_">
				<path id="XMLID_36160_" d="M62.530087,24.605598c-2.606899,0.0002-5.0485-0.5784-7.703197-1.7824
					c-4.007504-1.8169-6.993301-2.593399-11.287701-1.4958l-0.040401-0.1576c4.341999-1.109699,7.354301-0.327398,11.3951,1.505402
					c3.846901,1.7444,7.243099,2.1649,11.356098,1.405899l0.029503,0.16
					C64.970184,24.482498,63.732288,24.605598,62.530087,24.605598z"/>
			</g>
			<g id="XMLID_36157_">
				<path id="XMLID_36158_" d="M59.879589,22.469898c-1.848503,0-3.6287-0.299799-5.495884-0.9011
					c-3.866619-1.244499-6.739117-1.651999-10.838417-0.243299l-0.0527-0.153799
					c4.141399-1.4237,7.040298-1.013401,10.940899,0.242399c3.595901,1.1576,6.8689,1.1873,10.944,0.099899l0.041901,0.157301
					C63.425987,22.203199,61.622486,22.469898,59.879589,22.469898z"/>
			</g>
			<g id="XMLID_36155_">
				<path id="XMLID_36156_" d="M43.551704,21.323099l-0.065418-0.149c3.840603-1.683001,6.613201-1.642,10.386303-0.977501
					c3.379299,0.5949,6.502796,0.2437,10.444199-1.175999l0.055298,0.153099c-3.969799,1.429901-7.118,1.7843-10.527798,1.183001
					C50.018887,19.682999,47.375988,19.647398,43.551704,21.323099z"/>
			</g>
			<g id="XMLID_36153_">
				<path id="XMLID_36154_" d="M43.557888,21.319899l-0.077801-0.142599c3.587002-1.957701,6.189701-2.2651,9.738899-2.1509
					c3.880402,0.127399,7.027802-1.079102,9.848717-2.4002l0.068882,0.1474c-2.838997,1.3298-6.003799,2.542398-9.922997,2.415499
					C49.693089,19.074398,47.111889,19.380199,43.557888,21.319899z"/>
			</g>
			<g id="XMLID_28801_">
				<path id="XMLID_36152_" d="M43.563789,21.316399l-0.089603-0.135599c2.912403-1.9258,5.352303-2.811901,9.002003-3.269901
					c3.2953-0.4135,6.042797-1.720299,9.154598-3.555499l0.0826,0.1401c-3.129101,1.8454-5.894001,3.1598-9.2169,3.576799
					C48.874187,18.526798,46.453289,19.406099,43.563789,21.316399z"/>
			</g>
			<g id="XMLID_14665_">
				<path id="XMLID_14666_" d="M43.569706,21.312099l-0.101418-0.1271c2.583698-2.058601,4.875797-3.2698,8.174999-4.3197
					c2.992199-0.9522,5.508499-2.5415,8.3661-4.6348l0.096317,0.1312c-2.870617,2.1029-5.399918,3.6997-8.413219,4.658599
					C48.413986,18.0637,46.136486,19.267099,43.569706,21.312099z"/>
			</g>
			<g id="XMLID_14663_">
				<path id="XMLID_14664_" d="M43.575089,21.307499l-0.112202-0.117901c2.350502-2.234299,5.038403-4.000599,7.637901-5.708499
					c2.400497-1.5773,4.882915-3.208301,7.109501-5.2114l0.1087,0.120999c-2.235703,2.0112-4.723286,3.6457-7.128902,5.2264
					C48.596703,17.321098,45.914886,19.083099,43.575089,21.307499z"/>
			</g>
			<g id="XMLID_14661_">
				<path id="XMLID_14662_" d="M43.580086,21.302299l-0.122299-0.107401c2.077-2.365299,4.394802-4.532299,6.636101-6.6279
					c2.066299-1.9319,4.202999-3.929399,6.148815-6.0801l0.120686,0.109301c-1.950401,2.155499-4.0896,4.155499-6.158401,6.0897
					C47.966488,16.778898,45.651703,18.942999,43.580086,21.302299z"/>
			</g>
			<g id="XMLID_14659_">
				<path id="XMLID_14660_" d="M43.584705,21.296598L43.453186,21.2006c1.825203-2.5014,3.718002-5.016001,5.548603-7.447901
					c1.687099-2.2417,3.431797-4.5595,5.118916-6.861l0.131283,0.0962c-1.687801,2.3024-3.432899,4.6207-5.120285,6.8625
					C47.301487,16.281799,45.409088,18.796099,43.584705,21.296598z"/>
			</g>
			<g id="XMLID_14657_">
				<path id="XMLID_14658_" d="M43.588703,21.2904l-0.139515-0.083601c1.589798-2.6504,3.004601-5.4415,4.373001-8.1405
					c1.270897-2.5069,2.585197-5.099299,4.038696-7.5785l0.140503,0.0823c-1.451202,2.4749-2.764202,5.065-4.0341,7.5697
					C46.597706,15.841399,45.181488,18.634998,43.588703,21.2904z"/>
			</g>
			<g id="XMLID_14655_">
				<path id="XMLID_14656_" d="M43.592186,21.283998L43.445705,21.2132c1.369583-2.831701,2.271-5.827101,3.142582-8.723801
					c0.817417-2.7163,1.662498-5.525,2.895-8.2134l0.147701,0.0677c-1.227703,2.6782-2.071201,5.4815-2.887001,8.1926
					C45.870586,15.438999,44.967289,18.440699,43.592186,21.283998z"/>
			</g>
			<g id="XMLID_14653_">
				<path id="XMLID_14654_" d="M43.595089,21.277298l-0.152203-0.057499c1.257202-3.327301,1.757603-5.9006,1.726818-8.881701
					c-0.034618-3.3665,0.931381-6.4544,1.839481-9.084499l0.153702,0.053c-0.903599,2.6173-1.864799,5.689301-1.830502,9.029901
					C45.363388,15.339299,44.860088,17.929699,43.595089,21.277298z"/>
			</g>
			<g id="XMLID_14651_">
				<path id="XMLID_14652_" d="M43.597286,21.270699L43.440704,21.2265c0.997883-3.5305,1.127884-6.058001,0.478882-9.325601
					c-0.6651-3.3504-0.264599-6.2145,0.541401-9.4842l0.157902,0.0391c-0.8008,3.2484-1.1991,6.0925-0.539803,9.4133
					C44.733589,15.164699,44.602989,17.712799,43.597286,21.270699z"/>
			</g>
			<g id="XMLID_14649_">
				<path id="XMLID_14650_" d="M43.598888,21.2638l-0.159801-0.0305c0.737202-3.866701,0.520702-6.4874-0.798901-9.6699
					c-1.393898-3.3613-1.319901-6.3492-0.7799-9.801101l0.160801,0.0251c-0.5359,3.4249-0.6101,6.3875,0.769299,9.7138
					C44.123589,14.716399,44.342705,17.3622,43.598888,21.2638z"/>
			</g>
			<g id="XMLID_14647_">
				<path id="XMLID_14648_" d="M43.599789,21.257198L43.438087,21.24c0.425098-4.013-0.124382-6.608601-2.100101-9.919001
					c-1.842197-3.087-2.43428-5.8998-2.1115-10.0322l0.162102,0.0127c-0.319801,4.0953,0.2659,6.8812,2.089199,9.9363
					C43.473988,14.582398,44.029186,17.204298,43.599789,21.257198z"/>
			</g>
			<g id="XMLID_14645_">
				<path id="XMLID_14646_" d="M43.600288,21.2505l-0.162701-0.003801c0.0998-4.155699-0.825401-6.885099-3.4133-10.070399
					c-2.514584-3.0948-3.4814-5.9481-3.448799-10.1768l0.162598,0.0013c-0.0322,4.1866,0.9245,7.0108,3.412399,10.0729
					C42.766087,14.292999,43.700989,17.051298,43.600288,21.2505z"/>
			</g>
			<g id="XMLID_14643_">
				<path id="XMLID_14644_" d="M43.437786,21.253199c-0.239998-4.239901-1.5233-6.9831-4.735199-10.1214
					c-3.203098-3.1299-4.544399-5.9976-4.783798-10.2284l0.162399-0.0092c0.236801,4.1855,1.5644,7.0232,4.735199,10.121301
					c3.244701,3.1704,4.541199,5.942699,4.783802,10.2285L43.437786,21.253199z"/>
			</g>
			<g id="XMLID_14641_">
				<path id="XMLID_14642_" d="M43.438389,21.259899c-0.656403-4.6901-2.7192-7.251901-6.060684-10.0923
					c-3.725616-3.1669-5.443716-6.0573-6.127916-10.3087l0.160599-0.0257c0.677401,4.2087,2.3799,7.0714,6.072802,10.210501
					c3.371201,2.8656,5.452801,5.4524,6.116299,10.1936L43.438389,21.259899z"/>
			</g>
			<g id="XMLID_14639_">
				<path id="XMLID_14640_" d="M43.439487,21.266399c-1.095001-4.871201-3.869198-7.3113-7.382198-9.995101
					c-4.104401-3.1354-6.341101-6.286799-7.4792-10.537299l0.1572-0.0419c1.128,4.2128,3.3472,7.3381,7.420797,10.449901
					c3.539619,2.7041,6.335003,5.1641,7.442303,10.088799L43.439487,21.266399z"/>
			</g>
			<g id="XMLID_14637_">
				<path id="XMLID_14638_" d="M43.441288,21.2729c-1.523201-4.8766-4.8438-7.170701-8.6889-9.827001
					c-4.460501-3.0814-7.181-6.432-8.8211-10.8639l0.1525-0.0566c1.649799,4.4582,4.269917,7.684,8.761,10.786699
					c3.869915,2.673301,7.212002,4.9822,8.751915,9.9122L43.441288,21.2729z"/>
			</g>
			<g id="XMLID_14635_">
				<path id="XMLID_14636_" d="M43.443489,21.279099c-1.792301-4.438299-5.086903-6.505199-8.9016-8.898499
					c-0.3535-0.2217-0.710903-0.4459-1.071186-0.6748c-4.765116-3.0252-7.986515-6.5947-10.137615-11.2333l0.1474-0.0683
					c2.137701,4.6089,5.3398,8.1564,10.077217,11.1643c0.360283,0.228601,0.717484,0.4526,1.070583,0.6742
					c3.838699,2.408401,7.153999,4.488199,8.966099,8.975401L43.443489,21.279099z"/>
			</g>
			<g id="XMLID_14633_">
				<path id="XMLID_14634_" d="M43.446186,21.2848c-2.045197-4.113401-5.539799-6.055901-9.239697-8.112401
					c-0.6483-0.3603-1.318703-0.733-1.984303-1.118999c-5.088299-2.9512-8.716599-6.6268-11.4182-11.567201l0.142717-0.0782
					c2.686783,4.9133,6.295683,8.569,11.357082,11.5046c0.664402,0.3854,1.334202,0.7576,1.9818,1.1176
					c3.7225,2.0692,7.238602,4.0235,9.306118,8.182199L43.446186,21.2848z"/>
			</g>
			<g id="XMLID_14631_">
				<path id="XMLID_14632_" d="M43.449188,21.290499c-2.3092-3.840599-5.9314-5.6006-9.766102-7.4639
					c-0.875797-0.4256-1.781298-0.8655-2.667799-1.331c-5.289299-2.7769-9.4282-6.6335-12.653399-11.7903l0.137815-0.0861
					c3.209484,5.1315,7.328184,8.9693,12.591183,11.7325c0.8841,0.464,1.788702,0.9036,2.663301,1.3286
					c3.857201,1.8742,7.500401,3.644401,9.834515,7.526299L43.449188,21.290499z"/>
			</g>
			<g id="XMLID_14629_">
				<path id="XMLID_14630_" d="M43.452705,21.295898c-2.56432-3.587099-6.301517-5.145-10.258316-6.794499
					c-1.100601-0.4588-2.238686-0.9333-3.338301-1.4516c-5.551701-2.617001-10.0767-6.4906-13.833801-11.8425l0.133101-0.0934
					c3.7404,5.328,8.2446,9.184099,13.77,11.788699c1.096315,0.516801,2.232601,0.9905,3.3316,1.448701
					c3.978714,1.658699,7.736717,3.225399,10.328197,6.849899L43.452705,21.295898z"/>
			</g>
			<g id="XMLID_14627_">
				<path id="XMLID_14628_" d="M43.456703,21.300999c-2.815514-3.3475-6.872814-4.7682-10.796516-6.142
					c-1.292999-0.4528-2.629999-0.921-3.906898-1.4519c-5.824301-2.422-10.7157-6.2326-14.953584-11.649401l0.127999-0.1001
					c4.220284,5.3941,9.090185,9.1884,14.888184,11.5992c1.272501,0.5292,2.607201,0.9966,3.898102,1.4485
					c3.944397,1.3813,8.022999,2.8095,10.867199,6.190901L43.456703,21.300999z"/>
			</g>
			<g id="XMLID_14625_">
				<path id="XMLID_14626_" d="M43.460987,21.305599c-3.0676-3.1173-7.2687-4.309299-11.3316-5.461801
					c-1.4655-0.4157-2.9809-0.845799-4.417-1.3594c-6.107399-2.1843-11.342999-5.8411-16.005898-11.1797l0.1227-0.1071
					c4.644,5.3171,9.857516,8.959,15.9379,11.133699c1.431,0.5118,2.9438,0.9409,4.406614,1.356
					c4.083187,1.158299,8.305485,2.356299,11.403286,5.5043L43.460987,21.305599z"/>
			</g>
			<g id="XMLID_14623_">
				<path id="XMLID_14624_" d="M43.465786,21.310099c-3.343399-2.895399-7.708897-3.85-11.930698-4.7733
					c-1.5916-0.348099-3.237383-0.708099-4.7943-1.1664c-6.392199-1.882-11.948083-5.2828-16.984898-10.3967l0.115899-0.114
					c5.016916,5.0935,10.549915,8.4806,16.9151,10.3547c1.5513,0.4567,3.194201,0.8159,4.782999,1.163501
					c4.241602,0.927599,8.627817,1.8866,12.002302,4.8092L43.465786,21.310099z"/>
			</g>
			<g id="XMLID_14621_">
				<path id="XMLID_14622_" d="M43.47049,21.313999c-3.621201-2.680099-8.192501-3.383699-12.613102-4.0641
					c-1.6658-0.2563-3.388199-0.5214-5.012499-0.8888c-6.6973-1.5149-12.5477-4.555201-17.885401-9.294701l0.108-0.1217
					c5.3168,4.7207,11.1435,7.7489,17.813301,9.257801c1.618799,0.365999,3.3384,0.630699,5.0012,0.886599
					c4.440399,0.683401,9.031799,1.390202,12.685398,4.094002L43.47049,21.313999z"/>
			</g>
			<g id="XMLID_14619_">
				<path id="XMLID_14620_" d="M43.475788,21.317499c-3.915501-2.4604-8.6642-2.879601-13.256401-3.284901
					c-1.722399-0.152-3.503498-0.309099-5.1908-0.5737c-7.037399-1.1029-13.154199-3.6873-18.699999-7.900599l0.0985-0.129601
					c5.5237,4.1966,11.616616,6.770801,18.626614,7.8695c1.682085,0.2637,3.460285,0.420601,5.18,0.572401
					c4.611385,0.407,9.380001,0.827799,13.328484,3.309L43.475788,21.317499z"/>
			</g>
			<g id="XMLID_14617_">
				<path id="XMLID_14618_" d="M43.481186,21.320499c-4.238598-2.2253-9.198399-2.3416-13.994898-2.454
					c-1.7192-0.040199-3.496901-0.082001-5.188-0.2237c-7.390301-0.6194-13.743999-2.661401-19.4238-6.2425l0.0868-0.1375
					c5.6572,3.5667,11.986799,5.6006,19.3507,6.2179c1.686199,0.1413,3.4613,0.182899,5.178099,0.223099
					c4.815199,0.1129,9.794401,0.2295,14.066702,2.472801L43.481186,21.320499z"/>
			</g>
			<g id="XMLID_14615_">
				<path id="XMLID_14616_" d="M43.486889,21.323198c-4.592102-1.9771-9.7976-1.759199-14.832102-1.5492
					c-1.653399,0.0693-3.3636,0.140301-4.9963,0.128101c-7.859699-0.061201-14.231199-1.453001-20.051498-4.380001l0.073-0.1452
					c5.7974,2.915299,12.146,4.301499,19.979715,4.3625c1.627184,0.012199,3.336584-0.0588,4.988384-0.127899
					c5.052099-0.2108,10.276899-0.429701,14.902998,1.562399L43.486889,21.323198z"/>
			</g>
			<g id="XMLID_14613_">
				<path id="XMLID_14614_" d="M17.978188,21.400599c-5.976399,0-10.875198-0.8262-15.444199-2.565001l0.0578-0.1521
					c5.7896,2.2034,12.1143,2.9349,20.509798,2.3729c1.557501-0.104399,3.1677-0.2952,4.872601-0.4974
					c5.343199-0.633598,10.867899-1.288599,15.5753,0.614101l-0.061001,0.1509c-4.668781-1.8874-10.1726-1.2346-15.494999-0.6035
					c-1.707001,0.2024-3.319401,0.393499-4.8811,0.498199C21.311289,21.339298,19.604788,21.400599,17.978188,21.400599z"/>
			</g>
			<g id="XMLID_14611_">
				<path id="XMLID_14612_" d="M11.825189,23.479498c-3.3599,0-6.7664-0.334099-10.164-1.2377l0.042-0.157299
					c7.1057,1.889799,14.2624,1.277899,20.9373,0.3344c1.4788-0.2089,2.995501-0.487501,4.601101-0.782501
					c5.524799-1.015499,11.238598-2.065399,16.3018-0.4653l-0.048901,0.155001c-5.024502-1.5875-10.7174-0.5415-16.223499,0.4702
					c-1.607401,0.295401-3.1255,0.574301-4.6077,0.783699C19.158388,23.075199,15.519988,23.4793,11.825189,23.479498z"/>
			</g>
			<g id="XMLID_14609_">
				<path id="XMLID_14610_" d="M6.672189,26.073698c-1.8971,0.000101-3.7941-0.130899-5.6807-0.436699l0.026-0.1605
					c7.1223,1.154099,14.4089-0.194,21.262217-1.6733c1.358284-0.293201,2.740183-0.637001,4.203484-1.001101
					c5.7136-1.421301,11.621597-2.8908,17.054199-1.632801l-0.0369,0.1586c-5.393101-1.2493-11.282784,0.2155-16.9781,1.632101
					c-1.464401,0.3643-2.847601,0.708399-4.208401,1.0021C17.257889,25.053799,11.965288,26.073698,6.672189,26.073698z"/>
			</g>
			<g id="XMLID_14607_">
				<path id="XMLID_14608_" d="M3.300089,29.053299c-0.9267,0-1.8522-0.0418-2.7785-0.132l0.0159-0.1621
					c6.8129,0.665501,13.6747-1.315001,20.310099-3.229801l1.173117-0.337898c1.265385-0.3633,2.554384-0.77,3.919184-1.200701
					c5.5849-1.762199,11.915501-3.7586,17.5923-2.822401l-0.026402,0.1604c-5.6394-0.930799-11.949398,1.0604-17.516998,2.817301
					c-1.3657,0.430799-2.655701,0.8379-3.9233,1.2017l-1.172785,0.3379C15.142488,27.344999,9.221889,29.053099,3.300089,29.053299z
					"/>
			</g>
			<g id="XMLID_14605_">
				<path id="XMLID_14606_" d="M1.044189,32.017498c-0.2648,0-0.529485-0.0042-0.7944-0.012299l0.005-0.162601
					c6.4951,0.2024,12.9471-2.1381,19.1852-4.400999c0.815599-0.2959,1.623899-0.589001,2.424099-0.873199
					c1.171101-0.416101,2.354-0.8636,3.606501-1.3372c5.663198-2.141701,12.082798-4.568001,18.055199-4.063601l-0.013699,0.162001
					c-5.937202-0.503401-12.337301,1.9181-17.9839,4.053699c-1.253201,0.473999-2.437,0.9217-3.6098,1.3382
					c-0.799685,0.284201-1.607599,0.577301-2.422899,0.873001C13.496888,29.770399,7.302089,32.017498,1.044189,32.017498z"/>
			</g>
			<g id="XMLID_14603_">
				<path id="XMLID_14604_" d="M0.163989,34.817101l-0.0019-0.162701c6.3034-0.069702,12.5014-2.769402,18.495399-5.380301
					c1.0888-0.474201,2.1171-0.922201,3.152-1.357c1.095499-0.4604,2.1929-0.9422,3.354599-1.452499
					c5.656801-2.4839,12.064299-5.297701,18.245302-5.297701c0.036797,0,0.073196,0.0002,0.1101,0.000299l-0.001003,0.162701
					C37.346287,21.297798,30.905188,24.1213,25.229588,26.6136c-1.162399,0.5105-2.260399,0.992599-3.357199,1.453499
					c-1.033684,0.4345-2.061686,0.882101-3.1499,1.356201C12.713704,32.040501,6.500288,34.746998,0.163989,34.817101z"/>
			</g>
			<g id="XMLID_14601_">
				<path id="XMLID_14602_" d="M0.278704,37.468597L0.259889,37.3069c6.4755-0.750603,12.6563-3.743202,18.633699-6.637201
					c0.9762-0.472599,1.9856-0.9613,2.965115-1.4242c1.182285-0.558599,2.364185-1.143,3.615484-1.7619
					c5.8239-2.8799,11.846201-5.8577,18.038698-6.3162l0.0121,0.162401c-6.1609,0.455898-12.168798,3.4268-17.978598,6.299599
					c-1.252001,0.619101-2.434801,1.204-3.618101,1.763201c-0.978899,0.462599-1.987999,0.951099-2.963699,1.423599
					C12.974988,33.716,6.781704,36.714699,0.278704,37.468597z"/>
			</g>
			<g id="XMLID_14599_">
				<path id="XMLID_14600_" d="M0.610989,40.088299l-0.034285-0.158901c6.607-1.431999,12.805285-4.750698,18.799484-7.960098
					c0.8834-0.473,1.7624-0.9436,2.6371-1.405201c1.258801-0.6642,2.512199-1.3566,3.8393-2.089399
					c5.66-3.1259,11.512699-6.358101,17.653999-7.306499l0.024799,0.160799c-6.112682,0.943901-11.952599,4.1691-17.6001,7.288
					c-1.327799,0.7334-2.5818,1.426001-3.8421,2.091c-0.874483,0.4615-1.753,0.9319-2.636299,1.404802
					C13.448889,35.3274,7.240388,38.651501,0.610989,40.088299z"/>
			</g>
			<g id="XMLID_14597_">
				<path id="XMLID_14598_" d="M1.163704,42.653599l-0.048615-0.155102c6.7017-2.104298,12.9362-5.784599,18.9653-9.343697
					c0.7328-0.432602,1.463316-0.8638,2.192316-1.290901c1.322384-0.7747,2.632683-1.577501,4.019783-2.427401
					c5.483299-3.3596,11.153217-6.833599,17.207699-8.267l0.037518,0.158201
					c-6.029217,1.4275-11.687916,4.894699-17.160217,8.247398c-1.387783,0.850401-2.6987,1.653601-4.022499,2.429201
					c-0.728899,0.426998-1.459284,0.8582-2.191799,1.2906C14.126088,36.858601,7.883389,40.5439,1.163704,42.653599z"/>
			</g>
			<g id="XMLID_14595_">
				<path id="XMLID_14596_" d="M1.933704,45.148598l-0.061715-0.1506c6.7694-2.768597,13.0543-6.8526,19.132401-10.8022
					c0.544399-0.3536,1.087799-0.706997,1.630999-1.058697c1.371601-0.8885,2.786316-1.845102,4.154202-2.770201
					c5.295597-3.581501,10.771599-7.285101,16.704399-9.195702l0.0499,0.154701c-5.910702,1.9037-11.376999,5.6005-16.6633,9.175699
					c-1.368601,0.925501-2.783701,1.882702-4.156885,2.772202c-0.542999,0.3517-1.086414,0.7048-1.630714,1.058399
					C15.008589,38.285999,8.717189,42.374298,1.933704,45.148598z"/>
			</g>
			<g id="XMLID_14593_">
				<path id="XMLID_14594_" d="M2.912389,47.563l-0.073-0.145203c6.8076-3.430599,13.1416-7.9562,19.267099-12.332897
					l0.9923-0.708801c1.406401-1.004002,2.848701-2.076302,4.243502-3.1134c5.099098-3.791201,10.371998-7.711599,16.145699-10.0893
					l0.062,0.150299c-5.755001,2.3701-11.019501,6.2843-16.110701,10.069601
					c-1.395399,1.037498-2.838299,2.110298-4.246199,3.115299L22.201088,35.2173
					C16.070589,39.5975,9.731388,44.126801,2.912389,47.563z"/>
			</g>
			<g id="XMLID_14591_">
				<path id="XMLID_14592_" d="M4.088289,49.890297l-0.0839-0.1395c6.811999-4.091099,13.1805-9.092197,19.339199-13.9286
					l0.315599-0.247799c1.4242-1.118198,2.877001-2.302399,4.282001-3.447498c4.8974-3.991501,9.961597-8.1189,15.540897-10.950901
					l0.0737,0.145201c-5.5639,2.8239-10.621082,6.9457-15.511997,10.931898c-1.405401,1.1455-2.8589,2.330002-4.284201,3.449303
					l-0.3155,0.2477C17.281387,40.7896,10.908889,45.7939,4.088289,49.890297z"/>
			</g>
			<g id="XMLID_14589_">
				<path id="XMLID_14590_" d="M5.447188,52.126099L5.353788,51.993c6.7804-4.759602,13.2505-10.342201,18.959-15.2677
					c1.424999-1.229603,2.8722-2.52,4.271601-3.768002c4.690998-4.1831,9.541698-8.5086,14.8922-11.778099l0.084797,0.1388
					c-5.338097,3.2617-10.183197,7.5825-14.868599,11.760698c-1.400084,1.248501-2.847799,2.539402-4.273899,3.769901
					C18.707705,41.776501,12.234288,47.3619,5.447188,52.126099z"/>
			</g>
			<g id="XMLID_14587_">
				<path id="XMLID_14588_" d="M6.973888,54.266598l-0.1023-0.1264c6.1325-4.964001,11.862599-10.326,18.182114-16.315899
					c1.406584-1.333099,2.830284-2.7206,4.207184-4.062401c4.4841-4.3699,9.120815-8.888699,14.2103-12.5791l0.0956,0.131701
					c-5.079899,3.6835-9.712502,8.198099-14.1924,12.5639c-1.3773,1.342201-2.8015,2.73-4.208799,4.064098
					C18.843489,43.934597,13.110989,49.299,6.973888,54.266598z"/>
			</g>
			<g id="XMLID_14585_">
				<path id="XMLID_14586_" d="M8.652988,56.306599l-0.1105-0.119499c5.8869-5.455002,11.558901-11.306499,17.334801-17.322201
					c1.370899-1.427898,2.756199-2.902599,4.0959-4.3288c4.275599-4.551699,8.696898-9.2586,13.492998-13.349499l0.105518,0.123899
					c-4.789219,4.084999-9.207317,8.788399-13.480001,13.336901c-1.34,1.426598-2.725615,2.9016-4.097216,4.330299
					C20.216988,44.994999,14.543088,50.8484,8.652988,56.306599z"/>
			</g>
			<g id="XMLID_14583_">
				<path id="XMLID_14584_" d="M10.471088,58.2388l-0.1182-0.111801c5.0146-5.303501,9.861816-10.9468,14.5494-16.404499
					c5.9189-6.891399,12.039499-14.017302,18.559198-20.531401l0.115002,0.115
					c-6.5154,6.5098-12.633785,13.633301-18.5509,20.522301C20.336788,47.287498,15.488388,52.932499,10.471088,58.2388z"/>
			</g>
			<g id="XMLID_14581_">
				<path id="XMLID_14582_" d="M12.414989,60.0532l-0.1255-0.1036c4.6256-5.593502,9.188699-11.400902,13.6016-17.017101
					c5.661615-7.205601,11.516199-14.6565,17.566099-21.736799l0.1236,0.105799
					c-6.047699,7.0776-11.901083,14.527199-17.5618,21.7314C21.605488,48.649899,17.041704,54.458199,12.414989,60.0532z"/>
			</g>
			<g id="XMLID_14579_">
				<path id="XMLID_14580_" d="M14.474388,61.736797l-0.1319-0.095299c4.3196-5.973099,8.6878-12.063499,12.912299-17.9534
					c5.2938-7.381199,10.7682-15.013901,16.198399-22.487301l0.131519,0.0956
					c-5.429817,7.4732-10.903919,15.105499-16.197817,22.4865C23.162489,49.672798,18.794088,55.763397,14.474388,61.736797z"/>
			</g>
			<g id="XMLID_14577_">
				<path id="XMLID_14578_" d="M16.640388,63.2738l-0.137899-0.086502c3.941399-6.2883,8.070499-12.606197,12.0637-18.716
					c4.9534-7.579201,10.075397-15.4163,14.8834-23.265099l0.138798,0.084799
					c-4.809399,7.851101-9.931999,15.6891-14.886099,23.269201C24.709589,50.669399,20.580788,56.986698,16.640388,63.2738z"/>
			</g>
			<g id="XMLID_14575_">
				<path id="XMLID_14576_" d="M18.905489,64.646301l-0.143301-0.076904c3.5369-6.5924,7.4266-13.140499,11.188299-19.473
					c4.596899-7.738499,9.350218-15.740198,13.496-23.884699l0.144901,0.0737
					c-4.148003,8.1493-8.902683,16.153399-13.501001,23.894102C26.329489,51.510399,22.440788,58.0569,18.905489,64.646301z"/>
			</g>
			<g id="XMLID_14573_">
				<path id="XMLID_14574_" d="M21.262487,65.836197l-0.148399-0.066696c3.100201-6.886703,6.749399-13.666901,10.2785-20.224003
					C35.619389,37.6922,39.989986,29.571499,43.443787,21.2174l0.150303,0.0623
					c-3.456802,8.3615-7.829502,16.485998-12.058201,24.343C28.008087,52.177097,24.360088,58.954998,21.262487,65.836197z"/>
			</g>
			<g id="XMLID_14571_">
				<path id="XMLID_14572_" d="M23.703888,66.826096l-0.1528-0.056c2.622-7.170197,6.0284-14.183098,9.322699-20.965199
					c3.846401-7.918598,7.823601-16.106798,10.567802-24.581398l0.154697,0.0502
					c-2.747498,8.485201-6.727398,16.678701-10.576199,24.6024C29.727589,52.6544,26.322989,59.663498,23.703888,66.826096z"/>
			</g>
			<g id="XMLID_14569_">
				<path id="XMLID_14570_" d="M26.220705,67.601097l-0.156616-0.044098c1.9641-6.9879,4.805698-13.828899,7.553698-20.444702
					c0.375103-0.903297,0.75-1.805599,1.122303-2.7076c0.665497-1.612297,1.3699-3.2598,2.0509-4.8531
					c2.533714-5.9268,5.153717-12.055298,6.648899-18.321899l0.158199,0.0378
					C42.099705,27.5474,39.477089,33.682499,36.940704,39.6157c-0.680916,1.592701-1.385117,3.239597-2.050316,4.850899
					c-0.372299,0.902199-0.747299,1.804699-1.122501,2.708199C31.021788,53.786098,28.182188,60.622498,26.220705,67.601097z"/>
			</g>
			<g id="XMLID_14567_">
				<path id="XMLID_14568_" d="M28.800987,68.151596l-0.159899-0.031097c1.3405-6.890701,3.814001-13.646698,6.205999-20.180199
					c0.399502-1.091499,0.798401-2.180702,1.191101-3.2682c0.562798-1.558201,1.164898-3.156601,1.7472-4.702301
					c2.289101-6.0779,4.6562-12.362801,5.653198-18.733801l0.160801,0.025101c-0.999599,6.387501-3.369801,12.6803-5.6619,18.766001
					c-0.582001,1.5452-1.183784,3.1432-1.746201,4.700199c-0.393002,1.087799-0.791698,2.1772-1.191399,3.268902
					C32.609989,54.5238,30.138887,61.273499,28.800987,68.151596z"/>
			</g>
			<g id="XMLID_14565_">
				<path id="XMLID_14566_" d="M31.427988,68.474098l-0.161699-0.016899c0.696499-6.750401,2.834415-13.427898,4.902199-19.885601
					c0.393002-1.227798,0.7995-2.497299,1.186218-3.737698c0.463482-1.487103,0.964882-3.019001,1.449883-4.500702
					c2.036118-6.221901,4.1418-12.655699,4.633198-19.090799l0.162403,0.0124c-0.493,6.4547-2.6017,12.8979-4.641003,19.129101
					c-0.484699,1.481098-0.985897,3.012501-1.4492,4.498299c-0.386799,1.241001-0.793499,2.511002-1.1866,3.739002
					C34.258289,55.070999,32.122887,61.740299,31.427988,68.474098z"/>
			</g>
		</g>
	</g>
</g>
</svg>
