<?xml version="1.0" encoding="utf-8"?>
<!-- Generator: Adobe Illustrator 22.0.1, SVG Export Plug-In . SVG Version: 6.00 Build 0)  -->
<svg version="1.1" id="Layer_1" xmlns="http://www.w3.org/2000/svg" xmlns:xlink="http://www.w3.org/1999/xlink" x="0px" y="0px"
	 viewBox="0 0 102 102" enable-background="new 0 0 102 102" xml:space="preserve">
<g id="XMLID_1960_">
	<g id="XMLID_2096_">
		<g id="XMLID_2114_">
			<g id="XMLID_2131_">
				<path id="XMLID_136_" fill="#231F20" d="M68.70018,10.272584c-1.076172,0-2.132324-0.122559-3.147949-0.407715
					c-2.760258-0.775391-4.693363-2.549316-6.562992-4.265136c-2.293457-2.105469-4.459961-4.09375-8.047852-4.401855
					c-5.067383-0.435547-10.37207-0.286133-15.501465-0.143555c-2.536133,0.071289-5.158689,0.144531-7.696775,0.144531H0.767072
					v-0.5h26.976074c2.53125,0,5.1499-0.073242,7.682615-0.144043c5.144531-0.144043,10.462891-0.292969,15.558594,0.14502
					c3.757324,0.322266,6.088867,2.462402,8.343262,4.53125c1.826172,1.67627,3.714355,3.409179,6.359379,4.152343
					c4.377441,1.229004,9.409668-0.633789,13.850098-2.276367c0.62793-0.232422,1.23877-0.458496,1.828125-0.667969
					c1.135742-0.403809,2.264648-0.819336,3.391602-1.233887c5.229004-1.924317,10.63623-3.914551,16.376465-4.504883
					l0.050781,0.49707C95.506821,1.781862,90.129868,3.760865,84.929184,5.67444
					c-1.128418,0.415527-2.259277,0.831543-3.396484,1.235352c-0.587402,0.208984-1.196289,0.43457-1.822266,0.666016
					C76.383286,8.807252,72.424789,10.272096,68.70018,10.272584z"/>
			</g>
			<g id="XMLID_2130_">
				<path id="XMLID_135_" fill="#231F20" d="M70.041489,15.303346c-1.054199,0-2.098633-0.099609-3.122559-0.331055
					c-2.746582-0.620117-5.03516-2.061523-7.248051-3.455566c-2.72998-1.719727-5.308594-3.344238-8.728516-3.626464
					c-1.452637-0.119629-2.914063-0.245605-4.381348-0.37207c-6.247559-0.538086-12.708008-1.094238-18.965818-1.210938
					c-4.652344-0.083984-9.35791,0.356445-13.904297,0.785645C9.528303,7.485475,5.22508,7.891725,0.951643,7.891725
					c-0.062012,0-0.123535-0.000488-0.185059-0.000488l0.000977-0.5C5.075666,7.389284,9.4326,6.991823,13.644026,6.59485
					c4.55957-0.430176,9.268066-0.875488,13.960938-0.787598c6.273924,0.117188,12.743162,0.674316,18.999022,1.212891
					c1.466797,0.126465,2.927734,0.252441,4.379395,0.37207c3.541992,0.291992,6.293457,2.02539,8.954102,3.70166
					c2.177246,1.371582,4.428715,2.789551,7.091801,3.391113c4.382324,0.987305,9.228516-0.526367,13.505859-1.862305
					c0.585938-0.183105,1.162598-0.363281,1.728516-0.53418c0.954102-0.288574,1.904297-0.582031,2.852539-0.875
					c5.148438-1.591309,10.472168-3.236816,16.016113-3.8208l0.052734,0.49707
					c-5.496094,0.579101-10.55957,2.144042-15.920898,3.801269c-0.949219,0.293457-1.900391,0.587402-2.855957,0.875977
					c-0.564453,0.17041-1.139648,0.350586-1.724121,0.532715C77.331039,14.147584,73.631821,15.303346,70.041489,15.303346z"/>
			</g>
			<g id="XMLID_2129_">
				<path id="XMLID_134_" fill="#231F20" d="M73.061996,18.672976c-1.138184,0-2.274902-0.053711-3.410645-0.17334
					c-3.083008-0.324707-6.070316-1.138184-8.959965-1.924805c-3.138184-0.854005-6.382813-1.737306-9.747559-1.991212
					c-4.074707-0.308105-8.041992-1.382813-11.879395-2.422363c-3.81543-1.033691-7.761229-2.102539-11.775389-2.398926
					c-5.085449-0.378418-10.058105,1.03125-14.87207,2.39209c-3.770996,1.06543-7.670411,2.16748-11.633301,2.429199
					l-0.033203-0.499023c3.910644-0.258301,7.78418-1.353027,11.530273-2.411621
					c4.855957-1.37207,9.878906-2.788574,15.04541-2.409668c4.061523,0.300293,8.03076,1.375488,11.869139,2.415527
					c3.814453,1.033203,7.758789,2.102051,11.786621,2.405762c3.412109,0.257813,6.680176,1.147461,9.84082,2.007813
					c2.870117,0.781738,5.838383,1.589355,8.881351,1.910156c6.083008,0.63916,12.265137-0.645508,18.242188-1.890137
					c4.323242-0.899903,8.793945-1.830079,13.201172-2.027833l0.022461,0.499023
					c-4.367188,0.196289-8.817871,1.122559-13.121582,2.018556C83.141586,17.623171,78.098129,18.672976,73.061996,18.672976z"/>
			</g>
			<g id="XMLID_2128_">
				<path id="XMLID_133_" fill="#231F20" d="M73.394028,22.255495c-0.40332,0-0.805664-0.001953-1.208496-0.006348
					c-6.481934-0.069824-13.628422-0.396973-21.241703-0.972656c-4.493652-0.339844-8.57666-2.192871-12.524902-3.984375
					c-3.630859-1.64795-7.38574-3.351563-11.412596-3.839845c-5.20166-0.627441-10.12793,1.664551-14.893066,3.884278
					c-3.638184,1.695313-7.400393,3.447754-11.314941,3.938477l-0.0625-0.496094
					c3.836914-0.480957,7.562989-2.216797,11.166504-3.895508c4.828613-2.249024,9.821289-4.574708,15.164551-3.927247
					c4.103027,0.49707,7.893064,2.217285,11.558592,3.88086c3.908691,1.773438,7.950684,3.60791,12.356445,3.94043
					c7.602051,0.575195,14.737797,0.901855,21.209476,0.97168c4.808105,0.053711,9.687012-0.222168,14.404297-0.486816
					c4.768066-0.267578,9.700684-0.543457,14.565918-0.485352l-0.005859,0.5
					c-4.851563-0.057129-9.771973,0.217773-14.532227,0.484863C82.292465,22.005007,77.82518,22.255495,73.394028,22.255495z"/>
			</g>
			<g id="XMLID_2127_">
				<path id="XMLID_132_" fill="#231F20" d="M66.659653,28.494265c-5.263676,0-10.528324-0.131348-15.715824-0.524902
					c-4.601074-0.349609-8.674805-2.412109-12.614746-4.406738c-3.600098-1.823242-7.322752-3.708008-11.398924-4.239258
					c-5.228027-0.685547-9.797852,1.719727-14.632813,4.261719c-3.631348,1.90918-7.385743,3.883301-11.411621,4.382813
					l-0.061523-0.496094c3.935058-0.48877,7.648926-2.440918,11.240234-4.32959
					c4.691406-2.466309,9.542969-5.015625,14.930176-4.314941c4.161133,0.54248,7.92285,2.447266,11.560545,4.289063
					c3.895996,1.972656,7.924805,4.012695,12.426758,4.354004c10.425781,0.793457,21.186527,0.52002,31.593754,0.255859
					c6.075684-0.15332,12.355469-0.311523,18.480957-0.256348l-0.004883,0.5
					c-6.114746-0.056152-12.392578,0.102539-18.463379,0.256348C77.340317,28.359011,72.000961,28.494265,66.659653,28.494265z"/>
			</g>
			<g id="XMLID_2126_">
				<path id="XMLID_131_" fill="#231F20" d="M75.104965,36.490845c-0.508301,0-1.016602-0.007324-1.525391-0.021973
					c-4.349609-0.12793-8.77002-0.572266-13.045414-1.002441c-3.14502-0.316406-6.396973-0.643555-9.589844-0.84082
					c-4.380859-0.270996-8.496582-1.810547-12.477051-3.299314c-3.826172-1.431152-7.783201-2.911133-11.930662-3.23291
					c-4.659668-0.361328-9.064453,1.484863-13.322266,3.270996c-3.410156,1.430174-6.936524,2.909178-10.635742,3.296873
					l-0.051758-0.49707c3.625488-0.379883,7.117188-1.844727,10.494141-3.261229
					c4.3125-1.809082,8.770996-3.683594,13.554688-3.307617c4.217285,0.327148,8.208006,1.819336,12.066893,3.262695
					c3.945801,1.476072,8.026367,3.002439,12.333008,3.268553c3.20166,0.197754,6.458984,0.525391,9.608887,0.842285
					c4.266117,0.429199,8.678226,0.873047,13.009769,1c4.608887,0.135742,9.234863-0.38623,13.708008-0.891113
					c3.827148-0.432129,7.785156-0.878418,11.72998-0.915039l0.004883,0.5c-3.919434,0.036133-7.864258,0.481445-11.678711,0.911621
					C83.35936,36.026001,79.238754,36.490845,75.104965,36.490845z"/>
			</g>
			<g id="XMLID_2125_">
				<path id="XMLID_130_" fill="#231F20" d="M75.159164,45.840454c-0.755371,0-1.519043-0.04248-2.293945-0.136719
					c-3.300781-0.400391-6.549316-1.251953-9.69141-2.076172c-3.949219-1.035156-8.033203-2.106445-12.220703-2.272461
					c-4.04834-0.160645-8.071289-0.875977-11.961914-1.567383c-3.762207-0.668457-7.652342-1.359863-11.541502-1.542969
					c-4.164063-0.194824-8.194824,0.686523-12.096191,1.539063c-3.266602,0.713867-6.644531,1.452148-10.114258,1.571289
					l-0.017578-0.5c3.424805-0.117676,6.780274-0.850586,10.024902-1.55957c3.933105-0.859863,7.999512-1.748535,12.226563-1.549805
					c3.921387,0.184082,7.827635,0.878418,11.605955,1.549805c3.873535,0.688477,7.879395,1.400391,11.893555,1.55957
					c4.242188,0.168945,8.352539,1.246582,12.328125,2.289063c3.125492,0.819336,6.357914,1.666992,9.625004,2.063477
					c4.683594,0.567383,8.824219-0.731934,13.208496-2.10791c3.101563-0.973633,6.308105-1.97998,9.695801-2.243652
					l0.039063,0.498047c-3.331055,0.259766-6.510254,1.257324-9.584961,2.222656
					C82.728012,44.692505,79.069809,45.840454,75.159164,45.840454z"/>
			</g>
			<g id="XMLID_2124_">
				<path id="XMLID_129_" fill="#231F20" d="M75.210434,54.591919c-0.771484,0.000488-1.576172-0.068848-2.424316-0.220215
					c-3.271973-0.584961-6.418945-1.819336-9.462894-3.013184c-3.946289-1.547852-8.026855-3.148438-12.369629-3.310547
					c-8.335449-0.312012-16.798828-0.194824-24.983397-0.080566c-6.112793,0.083984-12.434082,0.171387-18.653809,0.080566
					l0.007813-0.5c6.209961,0.091309,12.529785,0.003418,18.63916-0.080566
					c8.190428-0.114746,16.660643-0.231445,25.008787,0.080566c4.427734,0.165527,8.54834,1.782227,12.533691,3.345215
					c3.021,1.185059,6.145023,2.410156,9.368168,2.986328c4.742188,0.845215,8.149414-1.010742,11.755859-2.977539
					c2.633789-1.437012,5.357422-2.922852,8.702148-3.352051l0.063477,0.496094
					c-3.251465,0.416992-5.933105,1.879883-8.525879,3.294922C81.819809,53.004517,78.909653,54.591919,75.210434,54.591919z"/>
			</g>
			<g id="XMLID_2123_">
				<path id="XMLID_128_" fill="#231F20" d="M74.908188,61.1427c-0.78418,0-1.599121-0.069336-2.453125-0.22168
					c-3.215332-0.574219-6.311035-1.777832-9.304203-2.941895c-3.892578-1.513672-7.91748-3.078613-12.197266-3.238281
					c-7.652832-0.285645-15.575195-0.570313-23.4624-0.560547c-3.044922,0.007813-6.137695,0.149902-9.128418,0.286621
					c-3.617188,0.166504-7.35791,0.337891-11.046875,0.273926l0.008789-0.5c3.67334,0.063477,7.404786-0.107422,11.015137-0.272949
					c2.996094-0.137695,6.094238-0.279785,9.150391-0.287598c7.882811-0.018555,15.823729,0.274414,23.481932,0.560547
					c4.364258,0.163086,8.428711,1.743652,12.359863,3.272461c2.971195,1.155273,6.043461,2.350098,9.210941,2.915527
					c4.741699,0.843262,8.288086-0.987305,12.044914-2.927246c2.680183-1.384766,5.45118-2.816406,8.742683-3.258301
					l0.066406,0.495117c-3.205566,0.430664-5.9375,1.842285-8.57959,3.20752
					C81.650864,59.581665,78.628891,61.1427,74.908188,61.1427z"/>
			</g>
			<g id="XMLID_2122_">
				<path id="XMLID_127_" fill="#231F20" d="M73.435043,64.993774c-0.900391,0.000488-1.803223-0.042969-2.709473-0.138672
					c-2.987793-0.315918-5.940918-0.986328-8.796879-1.634766c-3.555664-0.806641-7.231934-1.641602-10.975586-1.786621
					c-4.347656-0.168945-8.645996-1.02832-12.803223-1.858887c-3.940918-0.787598-8.015623-1.602051-12.104002-1.819824
					c-3.977051-0.207031-7.678223,0.819336-11.260742,1.815918c-3.046387,0.847656-6.196289,1.724609-9.544434,1.862793
					l-0.020508-0.5c3.29004-0.135742,6.41211-1.004395,9.431152-1.844238c3.620605-1.007813,7.36377-2.052734,11.420898-1.833496
					c4.125,0.219238,8.217283,1.037109,12.175291,1.828125c4.138184,0.827148,8.416992,1.682617,12.725098,1.849609
					c3.790039,0.147461,7.489258,0.987305,11.066406,1.799316c2.842289,0.64502,5.780766,1.312012,8.739262,1.625
					c5.008789,0.530762,9.979004-0.587402,14.785156-1.666992c3.34375-0.751953,6.80127-1.528809,10.269531-1.756836
					l0.033203,0.499023c-3.429688,0.225586-6.868164,0.998047-10.193359,1.745605
					C81.689926,64.073853,77.5952,64.993774,73.435043,64.993774z"/>
			</g>
			<g id="XMLID_2121_">
				<path id="XMLID_110_" fill="#231F20" d="M64.466782,68.365845c-4.527348,0-9.065434-0.072754-13.55518-0.291504
					c-4.981445-0.242188-9.648438-2.104004-14.161621-3.904297c-4.224121-1.685547-8.592283-3.427734-13.176268-3.812988
					c-4.321289-0.362793-7.8125,1.67334-11.513184,3.828613c-2.941895,1.713379-5.983399,3.484863-9.475586,3.938965
					L2.52049,67.62854c3.39209-0.440918,6.389648-2.186523,9.288086-3.875c3.60498-2.099609,7.336914-4.273926,11.807129-3.894531
					c4.658203,0.391113,9.061522,2.147949,13.319334,3.84668c4.475098,1.785156,9.102539,3.630859,14.000977,3.869629
					c9.080566,0.44043,18.374027,0.287598,27.361332,0.138184c6.807129-0.112793,13.846191-0.22998,20.742676-0.086914
					l-0.010742,0.5c-6.886719-0.142578-13.920898-0.025879-20.723633,0.086914
					C73.749496,68.289185,69.114243,68.365845,64.466782,68.365845z"/>
			</g>
			<g id="XMLID_2120_">
				<path id="XMLID_109_" fill="#231F20" d="M51.874981,74.841431c-0.308105,0-0.615723-0.007324-0.924805-0.022949
					c-5.380859-0.269531-10.200684-2.782715-14.862309-5.213379c-4.142084-2.160156-8.425776-4.393555-13.056147-5.01123
					c-4.957031-0.666016-8.494629,2.067871-12.236816,4.960449c-2.964844,2.291016-6.029786,4.659668-9.901367,5.261719
					l-0.077148-0.494141c3.744629-0.582031,6.758301-2.911133,9.672852-5.163086
					c3.658203-2.827148,7.441895-5.750977,12.608887-5.061035c4.717285,0.629883,9.040525,2.884277,13.221189,5.063965
					c4.61377,2.405762,9.384277,4.893066,14.65625,5.157715c3.13916,0.157715,6.293945-0.556641,9.34082-1.247559
					c2.20166-0.499023,4.478519-1.015625,6.745609-1.202637c6.902832-0.572266,14.038574,0.317871,20.939453,1.17627
					c4.304199,0.535645,8.755371,1.089844,13.063477,1.273438l-0.021484,0.5
					c-4.328125-0.185059-8.789551-0.740234-13.104004-1.277344c-6.875-0.855469-13.984375-1.741699-20.836426-1.174316
					c-2.231934,0.18457-4.491215,0.696777-6.676273,1.192383C57.643536,74.19104,54.774395,74.841431,51.874981,74.841431z"/>
			</g>
			<g id="XMLID_2118_">
				<path id="XMLID_106_" fill="#231F20" d="M51.775372,81.532837c-0.273926,0-0.548828-0.006836-0.825684-0.021484
					c-5.316895-0.279785-10.070313-2.733887-14.666504-5.107422c-4.107422-2.120605-8.35449-4.313477-12.957518-4.913574
					c-4.968262-0.649902-8.59375,2.033203-12.432617,4.871094c-3.042481,2.249512-6.188965,4.575684-10.089844,5.147949
					L0.73094,81.014282c3.776855-0.553711,6.871582-2.841797,9.864746-5.054688
					c3.749023-2.772461,7.623047-5.638672,12.794434-4.965332c4.689941,0.611816,8.976561,2.825195,13.122068,4.96582
					c4.549805,2.348633,9.254395,4.777832,14.463867,5.052246c3.256348,0.166016,6.364258-0.753418,9.366211-1.647949
					c2.284668-0.681152,4.646976-1.385254,7.090824-1.618652c6.485352-0.618652,13.081055,0.486328,19.459961,1.555664
					c4.686523,0.785156,9.532227,1.597168,14.271484,1.710449l-0.011719,0.5
					c-4.774902-0.114258-9.638672-0.929199-14.342285-1.717285c-6.347664-1.063965-12.911133-2.164063-19.32959-1.550781
					c-2.395508,0.228516-4.734379,0.925781-6.996098,1.599609C57.693829,80.675415,54.815411,81.532837,51.775372,81.532837z"/>
			</g>
			<g id="XMLID_2117_">
				<path id="XMLID_42_" fill="#231F20" d="M51.266582,88.20813c-0.103027,0-0.206055-0.000977-0.309082-0.00293
					c-5.115723-0.113281-9.752441-2.355469-14.236328-4.522461c-3.900879-1.886719-7.935057-3.836914-12.242674-4.353027
					c-4.969238-0.589844-8.900879,1.800293-13.063965,4.336426c-3.279297,1.998047-6.669922,4.063477-10.617676,4.537109
					l-0.05957-0.496094c3.839844-0.460938,7.183594-2.498047,10.416992-4.467773
					c4.052734-2.468262,8.24707-5.022461,13.383789-4.405762c4.390625,0.525879,8.462889,2.494629,12.400877,4.398926
					c4.436035,2.144531,9.022461,4.361328,14.029297,4.472656c3.629883,0.0625,6.897461-1.319336,10.06543-2.672852
					c2.492676-1.06543,5.070805-2.166016,7.83643-2.571289c6.32666-0.932129,12.785645,0.836914,19.029785,2.542969
					c4.371094,1.194336,8.890625,2.429688,13.274414,2.701172l-0.03125,0.5c-4.43457-0.275391-8.979492-1.517578-13.375-2.71875
					c-6.193848-1.693359-12.597168-3.441406-18.825684-2.53125c-2.701172,0.396484-5.248539,1.484375-7.712406,2.537109
					C58.10252,86.828247,54.871075,88.20813,51.266582,88.20813z"/>
			</g>
			<g id="XMLID_2116_">
				<path id="XMLID_41_" fill="#231F20" d="M50.787579,94.89856c-4.815918,0-9.26709-1.975586-13.57373-3.886719
					c-3.684082-1.634766-7.49365-3.326172-11.491209-3.751953c-5.006348-0.538086-9.235352,1.543945-13.713379,3.744141
					c-3.529785,1.734375-7.179688,3.52832-11.219727,3.892578L0.744611,94.39856
					c3.947754-0.355469,7.555176-2.128906,11.044434-3.842773c4.344238-2.134766,8.838379-4.341797,13.986328-3.793945
					c4.075684,0.435547,7.921873,2.142578,11.6416,3.792969c4.310547,1.913086,8.781738,3.917969,13.543457,3.842773
					c4.022949-0.041016,7.507324-1.941406,10.876953-3.779297c2.700687-1.472656,5.49268-2.996094,8.582035-3.594727
					c6.156738-1.199219,12.364746,1.262695,18.367676,3.638672c4.083496,1.617188,8.306641,3.289063,12.398926,3.737305
					l-0.054688,0.496094c-4.15918-0.455078-8.414063-2.139648-12.52832-3.768555
					c-5.935547-2.348633-12.074707-4.77832-18.087891-3.613281c-3.013672,0.584961-5.770996,2.088867-8.437992,3.543945
					c-3.423828,1.867188-6.963867,3.797852-11.111816,3.839844C50.906231,94.89856,50.846661,94.89856,50.787579,94.89856z"/>
			</g>
			<g id="XMLID_2115_">
				<path id="XMLID_40_" fill="#231F20" d="M50.739727,101.590942c-4.659668,0-9.010742-1.819336-13.220703-3.579102
					c-3.597168-1.503906-7.316893-3.05957-11.188475-3.454102c-5.04248-0.519531-9.69043,1.508789-14.183594,3.463867
					c-3.617676,1.574219-7.358399,3.202148-11.356934,3.567383l-0.045898-0.498047
					c3.918945-0.357422,7.622071-1.96875,11.203125-3.527344c4.551758-1.981445,9.257324-4.029297,14.434082-3.503906
					c3.945313,0.402344,7.699705,1.972656,11.330564,3.490234c4.231934,1.770508,8.604492,3.628906,13.248047,3.540039
					c4.246094-0.053711,7.823242-2.220703,11.282715-4.316406c2.795902-1.694336,5.687504-3.446289,8.95557-4.125
					c6.096191-1.264648,11.945313,1.481445,17.600098,4.138672c4.032227,1.895508,8.20166,3.854492,12.387207,4.303711
					l-0.053711,0.498047c-4.268555-0.458984-8.476563-2.436523-12.546387-4.348633
					c-5.580078-2.623047-11.348145-5.338867-17.285645-4.101563c-3.183594,0.660156-6.038086,2.389648-8.798344,4.0625
					c-3.516602,2.129883-7.152832,4.333008-11.535645,4.388672C50.890606,101.590942,50.814922,101.590942,50.739727,101.590942z"/>
			</g>
		</g>
		<g id="XMLID_2097_">
			<g id="XMLID_2113_">
				<path id="XMLID_39_" fill="#231F20" d="M101.408676,101.339966h-0.5c0-2.745117,0.100586-5.619141,0.197754-8.398438
					c0.216309-6.188477,0.439941-12.586914-0.371094-18.543457c-0.506348-3.717285-2.241699-7.175781-3.919434-10.520508
					c-2.000488-3.987793-4.068848-8.111328-4.100098-12.731445c-0.03125-4.622559,2.079102-8.771484,4.120117-12.78418
					c1.520508-2.989258,3.092773-6.080566,3.745605-9.321287c1.223145-6.071777,0.90332-12.956543,0.594727-19.614746
					c-0.137695-2.96289-0.267578-5.76123-0.267578-8.477051h0.5c0,2.704102,0.129395,5.49707,0.26709,8.454102
					c0.310059,6.687989,0.631348,13.604005-0.604004,19.736328c-0.666504,3.308104-2.254395,6.430174-3.790039,9.449217
					c-2.01416,3.959473-4.096191,8.053711-4.065918,12.554688c0.030273,4.50293,2.072266,8.57373,4.046875,12.510254
					c1.696289,3.380859,3.450188,6.877441,3.967773,10.677246c0.817383,5.998535,0.592773,12.419434,0.375488,18.628418
					C101.509262,95.733521,101.408676,98.603638,101.408676,101.339966z"/>
			</g>
			<g id="XMLID_2112_">
				<path id="XMLID_38_" fill="#231F20" d="M94.392563,99.796021h-0.5c0.008301-7.706055-0.090332-16.740234-0.880371-25.318848
					c-0.319824-3.476074-1.524414-6.844238-2.688477-10.101074c-1.369141-3.829102-2.784668-7.788574-2.789063-11.970703
					c-0.004883-4.709961,1.689453-9.193848,3.328125-13.529785c1.271973-3.366211,2.587891-6.847656,3.085938-10.392088
					c0.719727-5.121582,0.165527-10.445313-0.370117-15.593263c-0.35498-3.405762-0.721191-6.926757-0.715332-10.355957
					l0.5,0.000977c-0.005859,3.402344,0.359375,6.910645,0.712402,10.303223
					c0.539063,5.177735,1.09668,10.532228,0.368164,15.714356c-0.505859,3.600096-1.831543,7.10742-3.113281,10.49951
					c-1.623047,4.293945-3.300781,8.734375-3.295898,13.352051c0.004395,4.096191,1.404785,8.01416,2.759766,11.803223
					c1.174805,3.286621,2.389648,6.68457,2.71582,10.223633C94.302231,83.030396,94.400864,92.079224,94.392563,99.796021z"/>
			</g>
			<g id="XMLID_2111_">
				<path id="XMLID_37_" fill="#231F20" d="M86.50975,96.508911c-0.137695-3.708008-0.678711-7.416992-1.20166-11.003906
					c-0.593262-4.066895-1.206055-8.271484-1.23877-12.505371c-0.017578-2.274414-0.073242-4.589844-0.126953-6.828613
					c-0.087891-3.65332-0.178711-7.431152-0.106445-11.145996c0.094727-4.87793,0.988281-9.726074,1.852539-14.414551
					c0.676758-3.669434,1.375977-7.463379,1.685547-11.239744c0.384766-4.694824-0.83252-9.055176-2.010254-13.271973
					c-0.907227-3.250489-1.845703-6.611817-2.080078-10.160645L83.7827,5.904909
					c0.230957,3.497558,1.162109,6.833496,2.062988,10.05957c1.188965,4.25879,2.418457,8.663087,2.026367,13.447267
					c-0.311035,3.801268-1.013184,7.607908-1.691895,11.289549c-0.860352,4.668945-1.750488,9.496582-1.844238,14.333496
					c-0.071777,3.704102,0.018555,7.476074,0.106445,11.124023c0.053711,2.241211,0.109375,4.558594,0.126953,6.836914
					c0.032227,4.199219,0.643066,8.387207,1.233398,12.437012c0.524902,3.599609,1.067871,7.323242,1.207031,11.056641
					L86.50975,96.508911z"/>
			</g>
			<g id="XMLID_2110_">
				<path id="XMLID_36_" fill="#231F20" d="M79.179184,93.470825c-0.220215-2.933594-1.097168-5.912109-1.945801-8.791992
					c-1.206543-4.096191-2.454102-8.331543-1.881348-12.59668c0.334473-2.493164,1.32666-4.730469,2.286133-6.894043
					c1.069336-2.410645,2.174805-4.903809,2.34082-7.727539c0.511719-8.720215,0.803711-18.075195,0.867676-27.804197
					c0.024414-3.702148-0.123535-6.810059-2.212891-10.283203c-0.438965-0.729492-0.861816-1.393066-1.262695-2.021973
					c-1.646973-2.58252-2.947754-4.62256-3.446777-8.267091l0.495117-0.067383
					c0.484375,3.535645,1.759277,5.534668,3.373047,8.065919c0.40332,0.632324,0.828613,1.299316,1.27002,2.032715
					c2.152832,3.578613,2.308105,6.892578,2.28418,10.543945c-0.063965,9.737791-0.355957,19.101561-0.868652,27.830564
					c-0.171387,2.914063-1.29541,5.449219-2.382813,7.900879c-0.945313,2.131348-1.922852,4.335449-2.248047,6.757813
					c-0.558105,4.159668,0.674316,8.343262,1.866211,12.389648c0.855469,2.904297,1.740234,5.908203,1.964844,8.895508
					L79.179184,93.470825z"/>
			</g>
			<g id="XMLID_2109_">
				<path id="XMLID_35_" fill="#231F20" d="M72.318832,92.668091c-0.23291-2.974609-1.205078-5.888672-2.145508-8.706055
					c-1.224609-3.668945-2.490723-7.463379-2.143066-11.446289c0.250488-2.868652,1.670898-5.044922,3.043945-7.149414
					c1.404297-2.151367,2.855957-4.375977,3.032715-7.344727c0.389648-6.549805,0.266602-13.292969,0.147949-19.813965
					c-0.056152-3.070313-0.114258-6.245604-0.117188-9.346678c-0.003418-3.369141-0.168457-6.172363-2.214844-9.016113
					c-0.598633-0.832031-1.157227-1.535156-1.697754-2.215332c-1.76709-2.223145-3.162598-3.979005-3.697266-7.718751
					l0.495117-0.070313c0.515137,3.605469,1.806152,5.229492,3.593262,7.478028
					c0.544434,0.68457,1.106934,1.392578,1.712891,2.234375c2.132813,2.964844,2.305176,5.847168,2.308594,9.307617
					c0.00293,3.097168,0.061035,6.270018,0.116699,9.338377c0.119629,6.530273,0.242676,13.283203-0.148438,19.852051
					c-0.18457,3.101563-1.67334,5.382813-3.112793,7.588867c-1.401367,2.147461-2.725098,4.175781-2.964844,6.919922
					c-0.338867,3.878906,0.911133,7.623535,2.119629,11.244141c0.949707,2.84668,1.931641,5.789063,2.168945,8.825195
					L72.318832,92.668091z"/>
			</g>
			<g id="XMLID_2108_">
				<path id="XMLID_34_" fill="#231F20" d="M66.080063,94.83313c-0.183105-3.092773-0.916016-6.228516-1.624512-9.259766
					c-0.953129-4.07666-1.938969-8.291992-1.621098-12.507324c0.22168-2.938477,1.27393-5.611328,2.291019-8.196289
					c1.062988-2.701172,2.162109-5.494141,2.293457-8.571289c0.303223-7.07959,0.201172-14.337402,0.102539-21.355957
					c-0.028809-2.049805-0.057617-4.096678-0.07666-6.137693c-0.034668-3.756348-0.372559-6.766602-1.945313-10.164063
					c-0.185059-0.400391-0.368652-0.791992-0.549316-1.177246c-1.508305-3.218263-2.811039-5.99756-3.215336-9.790527
					l0.49707-0.052734c0.395508,3.709472,1.681641,6.453613,3.170902,9.631348
					c0.181152,0.385742,0.364746,0.777832,0.550781,1.179199c1.60498,3.467285,1.956543,6.652832,1.991211,10.369141
					c0.019043,2.040527,0.047852,4.086424,0.07666,6.13574c0.098633,7.025391,0.200684,14.290039-0.102539,21.384277
					c-0.135254,3.161133-1.25,5.993652-2.328125,8.73291c-1.003906,2.550293-2.041508,5.1875-2.257328,8.050781
					c-0.3125,4.138672,0.664063,8.315918,1.608891,12.355469c0.713379,3.052734,1.451172,6.208984,1.636719,9.344727
					L66.080063,94.83313z"/>
			</g>
			<g id="XMLID_2107_">
				<path id="XMLID_33_" fill="#231F20" d="M60.103497,98.245239c-0.055176-3.65625-0.427246-7.362305-0.787109-10.945313
					c-0.455566-4.537109-0.926758-9.228027-0.762207-13.879883c0.11377-3.216309,0.61084-6.424805,1.091309-9.527832
					c0.518066-3.344727,1.053711-6.802734,1.106445-10.264648c0.082031-5.354004,0.054199-10.803711,0.027344-16.07373
					c-0.01416-2.773438-0.02832-5.546875-0.027344-8.318846c0.001953-4.466309-0.691895-8.871094-1.362793-13.131348
					c-0.611328-3.884767-1.244141-7.902345-1.351074-11.96582l0.5-0.012695c0.105957,4.030761,0.73584,8.031738,1.345215,11.900879
					c0.673828,4.279297,1.370605,8.703613,1.368652,13.208984c-0.000977,2.770994,0.013184,5.543455,0.027344,8.316404
					c0.026855,5.272461,0.054688,10.724609-0.027344,16.083984c-0.053223,3.496094-0.591797,6.972168-1.112305,10.333496
					c-0.478027,3.088379-0.973145,6.282227-1.085449,9.46875c-0.163574,4.618164,0.305664,9.291992,0.759766,13.8125
					c0.36084,3.59375,0.733887,7.30957,0.789551,10.987305L60.103497,98.245239z"/>
			</g>
			<g id="XMLID_2106_">
				<path id="XMLID_32_" fill="#231F20" d="M54.469707,100.914185l-0.5-0.003906
					c0.116211-15.430664-0.033203-31.133789-0.177734-46.319824c-0.166016-17.444336-0.337891-35.482422-0.107422-53.205566
					l0.5,0.006836c-0.22998,17.717285-0.058594,35.752441,0.107422,53.194336
					C54.436504,69.774048,54.585918,85.478638,54.469707,100.914185z"/>
			</g>
			<g id="XMLID_2105_">
				<path id="XMLID_31_" fill="#231F20" d="M47.797832,100.993286l-0.5-0.003906
					c0.173828-29.397461,0.129395-59.296875,0.085938-88.211914L47.36668,0.949342l0.5-0.000977l0.01709,11.828613
					C47.927227,41.692993,47.971661,71.593384,47.797832,100.993286z"/>
			</g>
			<g id="XMLID_2104_">
				<path id="XMLID_30_" fill="#231F20" d="M40.174786,98.813599c-0.044434-4.101563-0.332031-8.268555-0.609863-12.298828
					c-0.344727-5.007324-0.70166-10.18457-0.598145-15.291504c0.066895-3.288574,0.465332-6.589844,0.851074-9.782715
					c0.405762-3.364258,0.825684-6.842773,0.855469-10.299316c0.084961-9.839355,0.054199-19.851561,0.024414-29.534178
					c-0.020508-6.771974-0.041992-13.774902-0.023926-20.658691l0.5,0.000977
					c-0.018066,6.882813,0.003418,13.884766,0.023926,20.65625c0.029785,9.684082,0.060547,19.697752-0.024414,29.539549
					c-0.029785,3.484863-0.45166,6.977539-0.859375,10.355469c-0.383789,3.180176-0.780762,6.469238-0.847168,9.732422
					c-0.103516,5.084961,0.25293,10.250977,0.597168,15.247559c0.27832,4.037109,0.565918,8.211914,0.61084,12.327148
					L40.174786,98.813599z"/>
			</g>
			<g id="XMLID_2103_">
				<path id="XMLID_29_" fill="#231F20" d="M32.931133,96.027466c-0.148926-3.870117-0.726563-7.878906-1.285154-11.754883
					c-0.837891-5.811523-1.704102-11.821777-1.182617-17.625c0.22998-2.562012,0.998047-4.980469,1.740232-7.319824
					c0.829102-2.611816,1.686523-5.3125,1.777344-8.190918c0.186035-5.882324-0.039551-11.895996-0.257324-17.711426
					c-0.129883-3.46533-0.264648-7.048338-0.310059-10.56201c-0.054688-4.196289,0.116699-8.445802,0.282715-12.555665
					c0.123535-3.066894,0.251953-6.237792,0.284668-9.361328l0.5,0.004883c-0.033203,3.131348-0.161133,6.306152-0.285156,9.376465
					c-0.165527,4.103516-0.336426,8.346192-0.282227,12.52881c0.04541,3.507813,0.179688,7.087891,0.30957,10.549803
					c0.218262,5.824219,0.443848,11.84668,0.257813,17.746094c-0.093262,2.948242-0.960938,5.682617-1.800781,8.32666
					c-0.734373,2.313477-1.49365,4.705566-1.718748,7.213379c-0.516113,5.745117,0.345703,11.725586,1.179197,17.508789
					c0.560547,3.888672,1.140137,7.910156,1.290527,11.806641L32.931133,96.027466z"/>
			</g>
			<g id="XMLID_2102_">
				<path id="XMLID_27_" fill="#231F20" d="M25.889143,94.257935c-0.248535-5.192383-1.047852-10.144531-1.894043-15.387207
					l-0.194824-1.208984c-0.116211-0.725098-0.245605-1.46875-0.377441-2.225098
					c-0.65918-3.788086-1.406738-8.081055-0.773438-11.888184c0.366699-2.203613,1.340332-3.980957,2.281738-5.699219
					c1.148438-2.095703,2.23291-4.075684,2.333496-6.794922c0.237305-6.385254-0.056641-12.92041-0.34082-19.240232
					c-0.174316-3.883301-0.35498-7.898438-0.410156-11.833008c-0.049805-3.556641,0.172852-7.140138,0.387695-10.605958
					c0.171387-2.7583,0.348633-5.61084,0.386719-8.429688l0.5,0.006836c-0.038574,2.830566-0.21582,5.689453-0.387695,8.454102
					c-0.214355,3.456055-0.436523,7.029786-0.386719,10.567872c0.054688,3.926758,0.235352,7.937988,0.409668,11.817383
					c0.284668,6.330076,0.579102,12.875486,0.341309,19.281248c-0.105469,2.837402-1.269531,4.961914-2.39502,7.016602
					c-0.921387,1.682129-1.874512,3.420898-2.227051,5.541016c-0.619141,3.723145,0.120117,7.97168,0.772949,11.720215
					c0.131836,0.758789,0.261719,1.504395,0.378906,2.231934l0.194336,1.208496
					c0.811035,5.025391,1.649902,10.222656,1.899414,15.443359L25.889143,94.257935z"/>
			</g>
			<g id="XMLID_2101_">
				<path id="XMLID_24_" fill="#231F20" d="M19.325666,94.914185c-0.177246-3.787109-0.895508-7.811523-1.589844-11.704102
					c-1.082031-6.061523-2.200195-12.32959-1.42041-18.181152c0.332031-2.48877,1.427734-4.559082,2.487305-6.561523
					c1.225586-2.316406,2.382813-4.504395,2.509766-7.333984c0.260254-5.837402-0.220215-11.807129-0.685059-17.580566
					c-0.316895-3.93701-0.644531-8.007811-0.734375-11.999998c-0.089355-3.983887,0.131836-8.00879,0.345215-11.90088
					c0.156738-2.851074,0.318359-5.798828,0.356934-8.706543l0.5,0.006836c-0.038574,2.91748-0.200684,5.871094-0.357422,8.727051
					c-0.213379,3.882813-0.434082,7.897462-0.344727,11.862306c0.089355,3.977539,0.416504,8.041016,0.73291,11.971189
					c0.46582,5.788574,0.947754,11.774414,0.685547,17.643066c-0.131348,2.941406-1.369629,5.281738-2.566895,7.544922
					c-1.039063,1.963867-2.113281,3.994141-2.433594,6.394531c-0.769531,5.773926,0.341797,12.00293,1.416992,18.026855
					c0.697266,3.908203,1.418457,7.949219,1.59668,11.768555L19.325666,94.914185z"/>
			</g>
			<g id="XMLID_2100_">
				<path id="XMLID_23_" fill="#231F20" d="M13.12303,97.394653c-0.09375-3.742188-0.549316-7.610352-0.990234-11.351563
					c-0.655762-5.568359-1.333984-11.32666-0.85791-16.891602c0.271973-3.179688,1.584473-5.988281,2.853516-8.70459
					c1.358398-2.908203,2.763184-5.915039,2.850586-9.345215c0.132324-5.164063-0.817871-10.380859-1.736328-15.425781
					c-0.708984-3.893553-1.441895-7.919432-1.67627-11.905272c-0.282715-4.807129-0.088867-9.718263,0.098145-14.467286
					c0.108398-2.743164,0.220215-5.579102,0.238281-8.355957l0.5,0.00293c-0.018066,2.785156-0.130371,5.625488-0.238281,8.372559
					c-0.187012,4.737305-0.380371,9.635743-0.099121,14.418458c0.232422,3.955078,0.962891,7.966309,1.669434,11.845213
					c0.922852,5.069824,1.877441,10.312012,1.744141,15.527832c-0.090332,3.534668-1.517578,6.589844-2.897949,9.543945
					c-1.250488,2.676758-2.543457,5.444824-2.808105,8.536133c-0.47168,5.51416,0.203613,11.246582,0.856445,16.790039
					c0.442383,3.751953,0.899414,7.631836,0.993652,11.398438L13.12303,97.394653z"/>
			</g>
			<g id="XMLID_2099_">
				<path id="XMLID_22_" fill="#231F20" d="M7.461408,100.0802h-0.5C6.964826,96.729614,6.7534,93.246216,6.54881,89.878052
					C6.198713,84.11145,5.836896,78.149048,6.509748,72.461548c0.411133-3.478516,1.807618-6.712402,3.157715-9.839844
					c1.566895-3.629395,3.187012-7.382813,3.222168-11.479004c0.040039-4.646484-1.457031-9.23877-2.905273-13.680176
					c-1.053223-3.231445-2.142579-6.57324-2.633301-9.913084c-0.861328-5.86377-0.610352-12.134278-0.367188-18.198242
					C7.095197,6.568971,7.210432,3.69153,7.209943,0.948854h0.5c0.000488,2.75293-0.114746,5.635254-0.226563,8.422363
					c-0.242188,6.041504-0.492188,12.288087,0.362793,18.105957c0.484375,3.297852,1.566895,6.61865,2.61377,9.830076
					c1.460449,4.479492,2.970215,9.111816,2.929688,13.839355c-0.035645,4.197754-1.676761,7.998047-3.263184,11.67334
					c-1.335938,3.094727-2.717286,6.293945-3.120606,9.700195c-0.66748,5.643066-0.306641,11.583496,0.041992,17.327637
					C7.252912,93.223755,7.464826,96.714966,7.461408,100.0802z"/>
			</g>
			<g id="XMLID_2098_">
				<path id="XMLID_15_" fill="#231F20" d="M1.017072,101.339966h-0.5c0-2.764648-0.086426-5.639648-0.169434-8.419922
					C0.16258,86.755005-0.028826,80.379517,0.666486,74.335571c0.430664-3.741699,1.905762-7.272949,3.33252-10.687988
					c1.662597-3.979004,3.381347-8.093262,3.40625-12.504395S5.67967,42.606079,3.987287,38.615845
					c-1.292969-3.04834-2.629883-6.200684-3.1875-9.483885c-1.056641-6.225586-0.781738-13.047852-0.515625-19.645508
					c0.119629-2.970214,0.23291-5.775879,0.23291-8.537598h0.5c0,2.771484-0.113281,5.582031-0.233398,8.557617
					C0.519026,16.078737,0.2451,22.874636,1.292951,29.047976c0.547363,3.226072,1.872559,6.350584,3.154785,9.372557
					c1.712402,4.037109,3.48291,8.211426,3.45752,12.725586c-0.025391,4.509766-1.763672,8.67041-3.444824,12.694336
					c-1.413574,3.382813-2.875,6.880859-3.296875,10.552734C0.472151,80.400513,0.66258,86.757935,0.847151,92.905396
					C0.930647,95.689575,1.017072,98.567505,1.017072,101.339966z"/>
			</g>
		</g>
	</g>
</g>
</svg>
