<svg width="771" height="771" viewBox="0 0 771 771" fill="none" xmlns="http://www.w3.org/2000/svg">
<g id="UX">
<g id="Union">
<path d="M410.174 250.374C414.882 247.357 421.145 248.729 424.161 253.438L496.818 366.854L569.474 253.438C572.491 248.729 578.753 247.357 583.462 250.374C588.17 253.39 589.542 259.653 586.526 264.361L508.842 385.624L586.526 506.887C589.542 511.595 588.17 517.858 583.462 520.874C578.753 523.89 572.491 522.519 569.474 517.81L496.818 404.394L424.161 517.81C421.145 522.519 414.882 523.89 410.174 520.874C405.465 517.858 404.094 511.595 407.11 506.887L484.793 385.624L407.11 264.361C404.094 259.653 405.465 253.39 410.174 250.374Z" fill="white"/>
<path d="M193.25 248.774C198.842 248.774 203.375 253.308 203.375 258.899V428.392C203.375 469.497 235.469 502.223 274.453 502.223C313.405 502.223 345.57 469.487 345.57 428.392V258.899C345.57 253.308 350.104 248.774 355.695 248.774C361.287 248.774 365.82 253.308 365.82 258.899V428.392C365.82 480.042 325.208 522.473 274.453 522.473C223.647 522.473 183.125 480.032 183.125 428.392V258.899C183.125 253.308 187.658 248.774 193.25 248.774Z" fill="white"/>
<path fill-rule="evenodd" clip-rule="evenodd" d="M0.875 92C0.875 41.673 41.673 0.875 92 0.875H679.25C729.577 0.875 770.375 41.673 770.375 92V679.25C770.375 729.577 729.577 770.375 679.25 770.375H92C41.673 770.375 0.875 729.577 0.875 679.25V92ZM92 21.125C52.8568 21.125 21.125 52.8568 21.125 92V679.25C21.125 718.393 52.8568 750.125 92 750.125H679.25C718.393 750.125 750.125 718.393 750.125 679.25V92C750.125 52.8568 718.393 21.125 679.25 21.125H92Z" fill="white"/>
</g>
</g>
</svg>
