<svg xmlns="http://www.w3.org/2000/svg" version="1.1" xmlns:xlink="http://www.w3.org/1999/xlink" xmlns:svgjs="http://svgjs.dev/svgjs" width="1000" height="1000"><g clip-path="url(#SvgjsClipPath1583)"><rect width="1000" height="1000" fill="#193240"></rect><g transform="matrix(22.580645161290324,0,0,22.580645161290324,150,150)"><svg xmlns="http://www.w3.org/2000/svg" version="1.1" xmlns:xlink="http://www.w3.org/1999/xlink" xmlns:svgjs="http://svgjs.dev/svgjs" width="31" height="31"><svg width="31" height="31" viewBox="0 0 31 31" fill="none" xmlns="http://www.w3.org/2000/svg">
<rect width="2.04805" height="3.52733" fill="white"></rect>
<rect x="5.89282" width="5.62809" height="2.45554" fill="#56D6FF"></rect>
<rect x="2.5647" y="4.63086" width="3.58369" height="2.97954" fill="white"></rect>
<rect x="8.37817" y="6.51562" width="4.23893" height="4.36886" fill="white"></rect>
<rect x="7.17358" y="14.4014" width="4.61496" height="4.89842" fill="#FFFC5D"></rect>
<rect x="15.2427" y="8.57715" width="5.85969" height="6.22231" fill="white"></rect>
<rect x="15.3635" y="2.44141" width="2.81561" height="2.98652" fill="#FFFC5D"></rect>
<rect x="1.54126" y="10.6016" width="2.81543" height="2.98381" fill="#56D6FF"></rect>
<path fill-rule="evenodd" clip-rule="evenodd" d="M30.8469 4.7531V1.24219H30.8468H27.7761L21.3739 1.24219V4.7531L27.7761 4.7531V27.3133L6.26822 27.3133V20.7855H2.94561V27.3133H2.94556L2.94556 30.8471H30.8028V30.8408H30.8468V4.7531H30.8469Z" fill="white"></path>
</svg></svg></g></g><defs><clipPath id="SvgjsClipPath1583"><rect width="1000" height="1000" x="0" y="0" rx="150" ry="150"></rect></clipPath></defs></svg>